<?xml version="1.0" encoding="UTF-8" standalone="no"?>
<!-- Created with Inkscape (http://www.inkscape.org/) -->

<svg
   xmlns:dc="http://purl.org/dc/elements/1.1/"
   xmlns:cc="http://creativecommons.org/ns#"
   xmlns:rdf="http://www.w3.org/1999/02/22-rdf-syntax-ns#"
   xmlns:svg="http://www.w3.org/2000/svg"
   xmlns="http://www.w3.org/2000/svg"
   xmlns:sodipodi="http://sodipodi.sourceforge.net/DTD/sodipodi-0.dtd"
   xmlns:inkscape="http://www.inkscape.org/namespaces/inkscape"
   width="264.67844mm"
   height="264.67844mm"
   viewBox="0 0 264.67847 264.67847"
   version="1.1"
   id="svg8"
   inkscape:version="0.92.3 (2405546, 2018-03-11)"
   sodipodi:docname="Policía Federal Argentina.svg">
  <defs
     id="defs2" />
  <sodipodi:namedview
     id="base"
     pagecolor="#ffffff"
     bordercolor="#666666"
     borderopacity="1.0"
     inkscape:pageopacity="0.0"
     inkscape:pageshadow="2"
     inkscape:zoom="0.24748737"
     inkscape:cx="-355.90126"
     inkscape:cy="697.69529"
     inkscape:document-units="px"
     inkscape:current-layer="layer1"
     showgrid="false"
     inkscape:pagecheckerboard="true"
     fit-margin-top="0"
     fit-margin-left="0"
     fit-margin-right="0"
     fit-margin-bottom="0"
     inkscape:window-width="944"
     inkscape:window-height="1002"
     inkscape:window-x="0"
     inkscape:window-y="0"
     inkscape:window-maximized="0" />
  <metadata
     id="metadata5">
    <rdf:RDF>
      <cc:Work
         rdf:about="">
        <dc:format>image/svg+xml</dc:format>
        <dc:type
           rdf:resource="http://purl.org/dc/dcmitype/StillImage" />
        <dc:title></dc:title>
      </cc:Work>
    </rdf:RDF>
  </metadata>
  <g
     inkscape:label="Layer 1"
     inkscape:groupmode="layer"
     id="layer1"
     transform="translate(-56.648861,-159.3691)">
    <g
       id="Layer1000"
       transform="matrix(1.8667186,0,0,1.8667186,25.629598,133.8085)"
       inkscape:export-xdpi="156.522"
       inkscape:export-ydpi="156.522"
       style="stroke-width:0.14173713">
      <path
         inkscape:connector-curvature="0"
         id="path815"
         style="fill:#000000;fill-rule:evenodd;stroke-width:0.14173713"
         d="m 87.511,13.6928 c 39.1538,0 70.8941,31.7402 70.8941,70.894 0,39.1538 -31.7403,70.8941 -70.8941,70.8941 -39.1538,0 -70.894,-31.7403 -70.894,-70.8941 0,-39.1538 31.7402,-70.894 70.894,-70.894 z" />
      <path
         inkscape:connector-curvature="0"
         id="path817"
         style="fill:#1b1918;fill-rule:evenodd;stroke:#1b1918;stroke-width:0.60266626;stroke-linecap:butt;stroke-linejoin:miter;stroke-dasharray:none"
         d="m 87.511,19.6055 c 35.8883,0 64.9813,29.093 64.9813,64.9813 0,35.8883 -29.093,64.9813 -64.9813,64.9813 -35.8883,0 -64.9813,-29.093 -64.9813,-64.9813 0,-35.8883 29.093,-64.9813 64.9813,-64.9813 z" />
      <path
         inkscape:connector-curvature="0"
         id="path819"
         style="fill:#fcbf2b;fill-rule:evenodd;stroke:#fcbf2b;stroke-width:0.1417513;stroke-linecap:butt;stroke-linejoin:miter;stroke-dasharray:none"
         d="m 112.9919,131.9648 h 6.8706 l 2.2902,-6.1072 6.4126,-0.9161 1.0688,-7.176 5.9545,-1.3741 0.1527,-7.4814 5.1911,-1.8322 -0.916,-7.176 4.8857,-3.3589 -2.4894,-6.3728 3.5582,0.2655 2.5956,-5.1911 -2.7483,-6.1072 -2.9009,0.3053 2.2902,-5.9545 -4.8858,-4.4278 2.1375,-6.5652 -5.6491,-3.2063 -0.1527,-6.718 -6.4126,-2.7482 -0.3054,-6.5653 -7.0233,-0.6107 -1.9848,-6.2599 h -6.8707 l -3.2062,-5.8019 -7.7868,1.9849 -3.817,-5.1912 -6.4126,2.901 v -2.901 l -5.3438,-2.9009 -5.6492,3.359 v 2.9009 l -5.8018,-2.5956 -4.4278,4.1224 -6.1072,-0.9161 -3.9697,5.8019 -6.8706,-0.1527 -2.5956,6.8706 h -6.7179 l -0.7635,7.176 -6.2599,2.4429 0.6108,8.0921 -5.9546,2.4429 1.0688,6.2599 -4.5804,4.1224 2.7482,5.4965 -2.9009,-0.1527 -3.2063,5.4965 3.0536,5.4965 4.1224,-0.1767 -3.2063,5.9786 4.7331,4.4277 -0.9161,6.1072 5.0385,3.0536 v 6.8707 l 6.8706,1.6795 0.7634,6.8706 7.4813,0.6107 2.2903,6.718 6.5652,-0.4581 3.0536,5.3438 6.5653,-1.5268 3.2063,4.1224 5.8812,-1.8322 -0.0793,2.7483 5.8504,3.6276 5.6373,-3.3222 -0.1894,-2.901 6.8707,2.1376 3.9697,-4.7331 6.8706,1.3741 z" />
      <g
         id="Layer1001"
         style="stroke-width:0.14173713">
        <path
           inkscape:connector-curvature="0"
           id="path821"
           style="fill:#f3d680;fill-rule:evenodd;stroke-width:0.14173713"
           d="m 87.6859,132.5175 -0.3329,12.2642 -5.8145,-3.449 0.0927,-2.8997 1.4152,-6.4954 z" />
        <path
           inkscape:connector-curvature="0"
           id="path823"
           style="fill:#f3d680;fill-rule:evenodd;stroke-width:0.14173713"
           d="m 92.7836,138.6228 -1.309,-6.6438 5.1426,-3.3661 2.992,12.1553 z" />
        <path
           inkscape:connector-curvature="0"
           id="path825"
           style="fill:#f3d680;fill-rule:evenodd;stroke-width:0.14173713"
           d="m 110.3778,137.3603 -6.748,-14.3575 -3.366,2.057 3.4595,11.0333 z" />
        <path
           inkscape:connector-curvature="0"
           id="path827"
           style="fill:#f3d680;fill-rule:evenodd;stroke-width:0.14173713"
           d="m 113.1205,131.8902 -4.8092,-9.1663 4.4738,-1.2246 6.8829,10.4387 c 0,0 -6.5211,0.004 -6.5475,-0.0478 z" />
        <path
           inkscape:connector-curvature="0"
           id="path829"
           style="fill:#f3d680;fill-rule:evenodd;stroke-width:0.14173713"
           d="m 116.5233,118.4038 5.7221,7.4155 6.1171,-0.8912 -9.9124,-9.0934 z" />
        <path
           inkscape:connector-curvature="0"
           id="path831"
           style="fill:#f3d680;fill-rule:evenodd;stroke-width:0.14173713"
           d="m 135.3484,116.4044 -5.7443,1.3642 -9.972,-7.0927 0.0702,-4.2486 z" />
        <path
           inkscape:connector-curvature="0"
           id="path833"
           style="fill:#f3d680;fill-rule:evenodd;stroke-width:0.14173713"
           d="m 135.836,108.8631 -16.3739,-7.5402 0.0481,-3.6734 21.1879,9.4331 z" />
        <path
           inkscape:connector-curvature="0"
           id="path835"
           style="fill:#f3d680;fill-rule:evenodd;stroke-width:0.14173713"
           d="m 144.9365,96.5515 -25.1813,-5.1765 -0.1681,3.2493 20.4253,5.2661 c 0,0 4.9781,-3.3278 4.9241,-3.3389 z" />
        <path
           inkscape:connector-curvature="0"
           id="path837"
           style="fill:#f3d680;fill-rule:evenodd;stroke-width:0.14173713"
           d="m 145.9196,90.4526 -26.2208,-2.1249 0.1057,-3.3996 28.6783,0.4497 c 0,0 -2.4886,5.0807 -2.5632,5.0748 z" />
        <path
           inkscape:connector-curvature="0"
           id="path839"
           style="fill:#f3d680;fill-rule:evenodd;stroke-width:0.14173713"
           d="m 119.8558,82.5483 23.1219,-3.1084 2.1217,-5.8335 -25.3284,4.9817 z" />
        <path
           inkscape:connector-curvature="0"
           id="path841"
           style="fill:#f3d680;fill-rule:evenodd;stroke-width:0.14173713"
           d="m 142.3689,62.6087 -22.5632,8.9525 0.0473,4.3556 20.4624,-6.8924 z" />
        <path
           inkscape:connector-curvature="0"
           id="path843"
           style="fill:#f3d680;fill-rule:evenodd;stroke-width:0.14173713"
           d="m 136.8073,59.2837 -16.8596,9.5885 V 63.5698 L 136.629,52.6525 c 0,0 0.2324,6.6008 0.1783,6.6312 z" />
        <path
           inkscape:connector-curvature="0"
           id="path845"
           style="fill:#f3d680;fill-rule:evenodd;stroke-width:0.14173713"
           d="m 130.2377,49.8285 -10.4237,9.5901 0.2004,-6.5724 9.8966,-9.4117 z" />
        <path
           inkscape:connector-curvature="0"
           id="path847"
           style="fill:#f3d680;fill-rule:evenodd;stroke-width:0.14173713"
           d="m 117.2871,50.0597 5.7111,-7.4912 -2.1139,-6.0078 -8.715,12.3494 2.2251,1.0383 2.6701,0.408 c 0,0 0.1855,-0.2967 0.2226,-0.2967 z" />
        <path
           inkscape:connector-curvature="0"
           id="path849"
           style="fill:#f3d680;fill-rule:evenodd;stroke-width:0.14173713"
           d="m 114.0606,36.4494 -5.9707,11.1256 -4.0794,-2.5589 6.9011,-14.281 z" />
        <path
           inkscape:connector-curvature="0"
           id="path851"
           style="fill:#f3d680;fill-rule:evenodd;stroke-width:0.14173713"
           d="m 102.9812,32.5452 -1.6037,9.6086 -4.7623,-2.8776 2.7112,-11.7422 z" />
        <path
           inkscape:connector-curvature="0"
           id="path853"
           style="fill:#f3d680;fill-rule:evenodd;stroke-width:0.14173713"
           d="m 87.6138,24.5889 -0.0509,13.6268 4.9591,0.2588 0.3097,-11.0403 z" />
        <path
           inkscape:connector-curvature="0"
           id="path855"
           style="fill:#f3d680;fill-rule:evenodd;stroke-width:0.14173713"
           d="m 76.1643,28.2492 2.6618,12.2295 4.9616,-1.9123 -1.9762,-7.8881 z" />
        <path
           inkscape:connector-curvature="0"
           id="path857"
           style="fill:#f3d680;fill-rule:evenodd;stroke-width:0.14173713"
           d="M 71.5582,32.2907 75.4226,43.2475 71.7515,46.318 65.6329,31.4181 Z" />
        <path
           inkscape:connector-curvature="0"
           id="path859"
           style="fill:#f3d680;fill-rule:evenodd;stroke-width:0.14173713"
           d="M 61.4608,37.2227 67.8177,48.4378 63.6314,50.04 54.8127,37.0676 Z" />
        <path
           inkscape:connector-curvature="0"
           id="path861"
           style="fill:#f3d680;fill-rule:evenodd;stroke-width:0.14173713"
           d="m 51.9918,43.9178 6.6114,7.1061 -2.5636,0.3148 0.045,4.0029 -10.5622,-11.3954 z" />
        <path
           inkscape:connector-curvature="0"
           id="path863"
           style="fill:#f3d680;fill-rule:evenodd;stroke-width:0.14173713"
           d="m 44.5523,50.9947 11.7055,9.3009 -0.363,5.2176 -17.4399,-11.9778 z" />
        <path
           inkscape:connector-curvature="0"
           id="path865"
           style="fill:#f3d680;fill-rule:evenodd;stroke-width:0.14173713"
           d="m 33.207,64.0452 22.5636,8.2621 0.0327,-4.2135 -16.8241,-6.4513 z" />
        <path
           inkscape:connector-curvature="0"
           id="path867"
           style="fill:#f3d680;fill-rule:evenodd;stroke-width:0.14173713"
           d="m 29.6653,74.3809 26.138,5.1347 V 75.5329 L 34.1254,70.3323 Z" />
        <path
           inkscape:connector-curvature="0"
           id="path869"
           style="fill:#f3d680;fill-rule:evenodd;stroke-width:0.14173713"
           d="m 26.2349,85.1932 29.4619,0.905 0.0438,-4.3973 -26.4292,-1.9352 z" />
        <path
           inkscape:connector-curvature="0"
           id="path871"
           style="fill:#f3d680;fill-rule:evenodd;stroke-width:0.14173713"
           d="M 30.2046,96.533 55.7887,91.9376 55.612,88.0934 33.2977,90.5236 Z" />
        <path
           inkscape:connector-curvature="0"
           id="path873"
           style="fill:#f3d680;fill-rule:evenodd;stroke-width:0.14173713"
           d="m 33.9889,106.9417 21.7,-7.9832 -0.0556,-3.8564 -20.7697,5.8681 z" />
        <path
           inkscape:connector-curvature="0"
           id="path875"
           style="fill:#f3d680;fill-rule:evenodd;stroke-width:0.14173713"
           d="m 38.984,110.0241 16.8162,-8.3272 -0.1113,5.4768 -16.6248,9.6599 z" />
        <path
           inkscape:connector-curvature="0"
           id="path877"
           style="fill:#f3d680;fill-rule:evenodd;stroke-width:0.14173713"
           d="m 46.6598,125.3893 10.3764,-9.5136 -1.2388,-4.7074 -9.9724,7.4947 z" />
        <path
           inkscape:connector-curvature="0"
           id="path879"
           style="fill:#f3d680;fill-rule:evenodd;stroke-width:0.14173713"
           d="m 56.345,132.6836 7.333,-10.8364 -4.5141,-2.7123 -5.0484,7.0043 z" />
        <path
           inkscape:connector-curvature="0"
           id="path881"
           style="fill:#f3d680;fill-rule:evenodd;stroke-width:0.14173713"
           d="m 72.2948,123.219 -6.355,14.3622 -3.0931,-5.212 4.4341,-9.8986 c 0,0 5.074,0.6127 5.014,0.7484 z" />
        <path
           inkscape:connector-curvature="0"
           id="path883"
           style="fill:#f3d680;fill-rule:evenodd;stroke-width:0.14173713"
           d="m 75.7252,124.773 -3.2043,11.3702 3.1684,4.0379 3.4469,-11.2218 c 0,0 -3.411,-4.238 -3.411,-4.1863 z" />
      </g>
      <path
         inkscape:connector-curvature="0"
         id="path886"
         style="fill:#004274;fill-rule:evenodd;stroke:#000000;stroke-width:0.2447942;stroke-linecap:round;stroke-linejoin:round;stroke-dasharray:none"
         d="m 99.988,127.6763 c 4.9894,-6.4199 18.9952,-2.4585 18.9952,-13.5915 V 49.8877 c -5.1031,0 -9.8798,0.6633 -13.8921,-3.181 -12.5628,-12.0369 -22.6212,-12.0474 -35.1951,0 -4.0123,3.8443 -8.789,3.181 -13.8921,3.181 v 64.1971 c 0,11.133 14.0051,7.1716 18.9952,13.5915 8.1062,10.4287 16.9189,10.3812 24.9889,0 z" />
      <g
         id="Layer1002"
         style="stroke-width:0.14173713">
        <path
           inkscape:connector-curvature="0"
           id="path888"
           style="fill:#ffffff;fill-rule:evenodd;stroke-width:0.14173713"
           d="m 87.5075,39.9025 c 0.4601,0 0.8331,0.373 0.8331,0.8331 0,0.46 -0.373,0.8331 -0.8331,0.8331 -0.4601,0 -0.8331,-0.3731 -0.8331,-0.8331 0,-0.4601 0.373,-0.8331 0.8331,-0.8331 z" />
        <path
           inkscape:connector-curvature="0"
           id="path890"
           style="fill:#ffffff;fill-rule:evenodd;stroke-width:0.14173713"
           d="m 85.5459,40.0334 c 0.4604,0 0.8331,0.3728 0.8331,0.8328 0,0.4604 -0.3727,0.8331 -0.8331,0.8331 -0.46,0 -0.8328,-0.3727 -0.8328,-0.8331 0,-0.46 0.3728,-0.8328 0.8328,-0.8328 z" />
        <path
           inkscape:connector-curvature="0"
           id="path892"
           style="fill:#ffffff;fill-rule:evenodd;stroke-width:0.14173713"
           d="m 83.5843,40.4257 c 0.4604,0 0.8331,0.3728 0.8331,0.8329 0,0.4603 -0.3727,0.8331 -0.8331,0.8331 -0.46,0 -0.8328,-0.3728 -0.8328,-0.8331 0,-0.4601 0.3728,-0.8329 0.8328,-0.8329 z" />
        <path
           inkscape:connector-curvature="0"
           id="path894"
           style="fill:#ffffff;fill-rule:evenodd;stroke-width:0.14173713"
           d="m 81.6231,41.0142 c 0.46,0 0.8328,0.3728 0.8328,0.8328 0,0.4604 -0.3728,0.8331 -0.8328,0.8331 -0.4604,0 -0.8331,-0.3727 -0.8331,-0.8331 0,-0.46 0.3727,-0.8328 0.8331,-0.8328 z" />
        <path
           inkscape:connector-curvature="0"
           id="path896"
           style="fill:#ffffff;fill-rule:evenodd;stroke-width:0.14173713"
           d="m 79.7922,41.864 c 0.46,0 0.8331,0.3731 0.8331,0.8331 0,0.4601 -0.3731,0.8329 -0.8331,0.8329 -0.4601,0 -0.8331,-0.3728 -0.8331,-0.8329 0,-0.46 0.373,-0.8331 0.8331,-0.8331 z" />
        <path
           inkscape:connector-curvature="0"
           id="path898"
           style="fill:#ffffff;fill-rule:evenodd;stroke-width:0.14173713"
           d="m 78.0267,42.8448 c 0.4604,0 0.8331,0.3728 0.8331,0.8331 0,0.4601 -0.3727,0.8328 -0.8331,0.8328 -0.46,0 -0.8328,-0.3727 -0.8328,-0.8328 0,-0.4603 0.3728,-0.8331 0.8328,-0.8331 z" />
        <path
           inkscape:connector-curvature="0"
           id="path900"
           style="fill:#ffffff;fill-rule:evenodd;stroke-width:0.14173713"
           d="m 76.2613,43.9563 c 0.4604,0 0.8331,0.373 0.8331,0.8331 0,0.46 -0.3727,0.8331 -0.8331,0.8331 -0.46,0 -0.8328,-0.3731 -0.8328,-0.8331 0,-0.4601 0.3728,-0.8331 0.8328,-0.8331 z" />
        <path
           inkscape:connector-curvature="0"
           id="path902"
           style="fill:#ffffff;fill-rule:evenodd;stroke-width:0.14173713"
           d="m 74.6923,45.1332 c 0.4601,0 0.8329,0.3731 0.8329,0.8331 0,0.4601 -0.3728,0.8331 -0.8329,0.8331 -0.4603,0 -0.8331,-0.373 -0.8331,-0.8331 0,-0.46 0.3728,-0.8331 0.8331,-0.8331 z" />
        <path
           inkscape:connector-curvature="0"
           id="path904"
           style="fill:#ffffff;fill-rule:evenodd;stroke-width:0.14173713"
           d="m 73.1231,46.3757 c 0.46,0 0.8328,0.3727 0.8328,0.8328 0,0.4603 -0.3728,0.8331 -0.8328,0.8331 -0.4604,0 -0.8331,-0.3728 -0.8331,-0.8331 0,-0.4601 0.3727,-0.8328 0.8331,-0.8328 z" />
        <path
           inkscape:connector-curvature="0"
           id="path906"
           style="fill:#ffffff;fill-rule:evenodd;stroke-width:0.14173713"
           d="m 71.6193,47.7488 c 0.4601,0 0.8328,0.3727 0.8328,0.8328 0,0.4603 -0.3727,0.8331 -0.8328,0.8331 -0.4603,0 -0.8331,-0.3728 -0.8331,-0.8331 0,-0.4601 0.3728,-0.8328 0.8331,-0.8328 z" />
        <path
           inkscape:connector-curvature="0"
           id="path908"
           style="fill:#ffffff;fill-rule:evenodd;stroke-width:0.14173713"
           d="m 70.1152,49.1219 c 0.4604,0 0.8331,0.3727 0.8331,0.8328 0,0.4603 -0.3727,0.8331 -0.8331,0.8331 -0.46,0 -0.8328,-0.3728 -0.8328,-0.8331 0,-0.4601 0.3728,-0.8328 0.8328,-0.8328 z" />
        <path
           inkscape:connector-curvature="0"
           id="path910"
           style="fill:#ffffff;fill-rule:evenodd;stroke-width:0.14173713"
           d="m 68.3501,50.2333 c 0.4601,0 0.8328,0.3728 0.8328,0.8328 0,0.4604 -0.3727,0.8331 -0.8328,0.8331 -0.4603,0 -0.8331,-0.3727 -0.8331,-0.8331 0,-0.46 0.3728,-0.8328 0.8331,-0.8328 z" />
        <path
           inkscape:connector-curvature="0"
           id="path912"
           style="fill:#ffffff;fill-rule:evenodd;stroke-width:0.14173713"
           d="m 66.3885,50.9525 c 0.4601,0 0.8329,0.3727 0.8329,0.8331 0,0.46 -0.3728,0.8328 -0.8329,0.8328 -0.4603,0 -0.8331,-0.3728 -0.8331,-0.8328 0,-0.4604 0.3728,-0.8331 0.8331,-0.8331 z" />
        <path
           inkscape:connector-curvature="0"
           id="path914"
           style="fill:#ffffff;fill-rule:evenodd;stroke-width:0.14173713"
           d="m 64.2963,51.2793 c 0.46,0 0.8328,0.373 0.8328,0.8331 0,0.4601 -0.3728,0.8331 -0.8328,0.8331 -0.4604,0 -0.8331,-0.373 -0.8331,-0.8331 0,-0.4601 0.3727,-0.8331 0.8331,-0.8331 z" />
        <path
           inkscape:connector-curvature="0"
           id="path916"
           style="fill:#ffffff;fill-rule:evenodd;stroke-width:0.14173713"
           d="m 62.2692,51.4103 c 0.4604,0 0.8331,0.3727 0.8331,0.8328 0,0.4603 -0.3727,0.8331 -0.8331,0.8331 -0.46,0 -0.8328,-0.3728 -0.8328,-0.8331 0,-0.4601 0.3728,-0.8328 0.8328,-0.8328 z" />
        <path
           inkscape:connector-curvature="0"
           id="path918"
           style="fill:#ffffff;fill-rule:evenodd;stroke-width:0.14173713"
           d="m 60.3077,51.3448 c 0.4603,0 0.8331,0.3727 0.8331,0.8331 0,0.4601 -0.3728,0.8328 -0.8331,0.8328 -0.4601,0 -0.8329,-0.3727 -0.8329,-0.8328 0,-0.4604 0.3728,-0.8331 0.8329,-0.8331 z" />
        <path
           inkscape:connector-curvature="0"
           id="path920"
           style="fill:#ffffff;fill-rule:evenodd;stroke-width:0.14173713"
           d="m 58.2809,51.4103 c 0.46,0 0.8331,0.3727 0.8331,0.8328 0,0.4603 -0.3731,0.8331 -0.8331,0.8331 -0.4601,0 -0.8331,-0.3728 -0.8331,-0.8331 0,-0.4601 0.373,-0.8328 0.8331,-0.8328 z" />
        <path
           inkscape:connector-curvature="0"
           id="path922"
           style="fill:#ffffff;fill-rule:evenodd;stroke-width:0.14173713"
           d="m 58.2809,53.3716 c 0.46,0 0.8331,0.373 0.8331,0.8331 0,0.46 -0.3731,0.8331 -0.8331,0.8331 -0.4601,0 -0.8331,-0.3731 -0.8331,-0.8331 0,-0.4601 0.373,-0.8331 0.8331,-0.8331 z" />
        <path
           inkscape:connector-curvature="0"
           id="path924"
           style="fill:#ffffff;fill-rule:evenodd;stroke-width:0.14173713"
           d="m 58.2809,55.3331 c 0.46,0 0.8331,0.3731 0.8331,0.8331 0,0.4601 -0.3731,0.8329 -0.8331,0.8329 -0.4601,0 -0.8331,-0.3728 -0.8331,-0.8329 0,-0.46 0.373,-0.8331 0.8331,-0.8331 z" />
        <path
           inkscape:connector-curvature="0"
           id="path926"
           style="fill:#ffffff;fill-rule:evenodd;stroke-width:0.14173713"
           d="m 58.2809,57.2947 c 0.46,0 0.8331,0.3728 0.8331,0.8331 0,0.4601 -0.3731,0.8328 -0.8331,0.8328 -0.4601,0 -0.8331,-0.3727 -0.8331,-0.8328 0,-0.4603 0.373,-0.8331 0.8331,-0.8331 z" />
        <path
           inkscape:connector-curvature="0"
           id="path928"
           style="fill:#ffffff;fill-rule:evenodd;stroke-width:0.14173713"
           d="m 58.2809,59.2563 c 0.46,0 0.8331,0.3727 0.8331,0.8328 0,0.4603 -0.3731,0.8331 -0.8331,0.8331 -0.4601,0 -0.8331,-0.3728 -0.8331,-0.8331 0,-0.4601 0.373,-0.8328 0.8331,-0.8328 z" />
        <path
           inkscape:connector-curvature="0"
           id="path930"
           style="fill:#ffffff;fill-rule:evenodd;stroke-width:0.14173713"
           d="m 58.2809,61.2179 c 0.46,0 0.8331,0.3727 0.8331,0.8328 0,0.4603 -0.3731,0.8331 -0.8331,0.8331 -0.4601,0 -0.8331,-0.3728 -0.8331,-0.8331 0,-0.4601 0.373,-0.8328 0.8331,-0.8328 z" />
        <path
           inkscape:connector-curvature="0"
           id="path932"
           style="fill:#ffffff;fill-rule:evenodd;stroke-width:0.14173713"
           d="m 58.2809,63.1791 c 0.46,0 0.8331,0.3731 0.8331,0.8332 0,0.46 -0.3731,0.8331 -0.8331,0.8331 -0.4601,0 -0.8331,-0.3731 -0.8331,-0.8331 0,-0.4601 0.373,-0.8332 0.8331,-0.8332 z" />
        <path
           inkscape:connector-curvature="0"
           id="path934"
           style="fill:#ffffff;fill-rule:evenodd;stroke-width:0.14173713"
           d="m 58.2809,65.1407 c 0.46,0 0.8331,0.3731 0.8331,0.8331 0,0.4601 -0.3731,0.8331 -0.8331,0.8331 -0.4601,0 -0.8331,-0.373 -0.8331,-0.8331 0,-0.46 0.373,-0.8331 0.8331,-0.8331 z" />
        <path
           inkscape:connector-curvature="0"
           id="path936"
           style="fill:#ffffff;fill-rule:evenodd;stroke-width:0.14173713"
           d="m 58.2809,67.1023 c 0.46,0 0.8331,0.3728 0.8331,0.8331 0,0.4601 -0.3731,0.8328 -0.8331,0.8328 -0.4601,0 -0.8331,-0.3727 -0.8331,-0.8328 0,-0.4603 0.373,-0.8331 0.8331,-0.8331 z" />
        <path
           inkscape:connector-curvature="0"
           id="path938"
           style="fill:#ffffff;fill-rule:evenodd;stroke-width:0.14173713"
           d="m 58.2809,69.0639 c 0.46,0 0.8331,0.3727 0.8331,0.8328 0,0.4603 -0.3731,0.8331 -0.8331,0.8331 -0.4601,0 -0.8331,-0.3728 -0.8331,-0.8331 0,-0.4601 0.373,-0.8328 0.8331,-0.8328 z" />
        <path
           inkscape:connector-curvature="0"
           id="path940"
           style="fill:#ffffff;fill-rule:evenodd;stroke-width:0.14173713"
           d="m 58.2809,71.0254 c 0.46,0 0.8331,0.3728 0.8331,0.8329 0,0.4603 -0.3731,0.8331 -0.8331,0.8331 -0.4601,0 -0.8331,-0.3728 -0.8331,-0.8331 0,-0.4601 0.373,-0.8329 0.8331,-0.8329 z" />
        <path
           inkscape:connector-curvature="0"
           id="path942"
           style="fill:#ffffff;fill-rule:evenodd;stroke-width:0.14173713"
           d="m 58.2809,72.9867 c 0.46,0 0.8331,0.3731 0.8331,0.8331 0,0.4601 -0.3731,0.8331 -0.8331,0.8331 -0.4601,0 -0.8331,-0.373 -0.8331,-0.8331 0,-0.46 0.373,-0.8331 0.8331,-0.8331 z" />
        <path
           inkscape:connector-curvature="0"
           id="path944"
           style="fill:#ffffff;fill-rule:evenodd;stroke-width:0.14173713"
           d="m 58.2809,74.9483 c 0.46,0 0.8331,0.3731 0.8331,0.8331 0,0.4601 -0.3731,0.8331 -0.8331,0.8331 -0.4601,0 -0.8331,-0.373 -0.8331,-0.8331 0,-0.46 0.373,-0.8331 0.8331,-0.8331 z" />
        <path
           inkscape:connector-curvature="0"
           id="path946"
           style="fill:#ffffff;fill-rule:evenodd;stroke-width:0.14173713"
           d="m 58.2809,76.9099 c 0.46,0 0.8331,0.3727 0.8331,0.8331 0,0.4601 -0.3731,0.8328 -0.8331,0.8328 -0.4601,0 -0.8331,-0.3727 -0.8331,-0.8328 0,-0.4604 0.373,-0.8331 0.8331,-0.8331 z" />
        <path
           inkscape:connector-curvature="0"
           id="path948"
           style="fill:#ffffff;fill-rule:evenodd;stroke-width:0.14173713"
           d="m 58.2809,78.8715 c 0.46,0 0.8331,0.3727 0.8331,0.8331 0,0.46 -0.3731,0.8328 -0.8331,0.8328 -0.4601,0 -0.8331,-0.3728 -0.8331,-0.8328 0,-0.4604 0.373,-0.8331 0.8331,-0.8331 z" />
        <path
           inkscape:connector-curvature="0"
           id="path950"
           style="fill:#ffffff;fill-rule:evenodd;stroke-width:0.14173713"
           d="m 58.2809,80.833 c 0.46,0 0.8331,0.3728 0.8331,0.8329 0,0.4603 -0.3731,0.8331 -0.8331,0.8331 -0.4601,0 -0.8331,-0.3728 -0.8331,-0.8331 0,-0.4601 0.373,-0.8329 0.8331,-0.8329 z" />
        <path
           inkscape:connector-curvature="0"
           id="path952"
           style="fill:#ffffff;fill-rule:evenodd;stroke-width:0.14173713"
           d="m 58.2809,82.7946 c 0.46,0 0.8331,0.3728 0.8331,0.8328 0,0.4601 -0.3731,0.8331 -0.8331,0.8331 -0.4601,0 -0.8331,-0.373 -0.8331,-0.8331 0,-0.46 0.373,-0.8328 0.8331,-0.8328 z" />
        <path
           inkscape:connector-curvature="0"
           id="path954"
           style="fill:#ffffff;fill-rule:evenodd;stroke-width:0.14173713"
           d="m 58.2809,84.7559 c 0.46,0 0.8331,0.373 0.8331,0.8331 0,0.4601 -0.3731,0.8331 -0.8331,0.8331 -0.4601,0 -0.8331,-0.373 -0.8331,-0.8331 0,-0.4601 0.373,-0.8331 0.8331,-0.8331 z" />
        <path
           inkscape:connector-curvature="0"
           id="path956"
           style="fill:#ffffff;fill-rule:evenodd;stroke-width:0.14173713"
           d="m 58.2809,86.7175 c 0.46,0 0.8331,0.3727 0.8331,0.8331 0,0.46 -0.3731,0.8328 -0.8331,0.8328 -0.4601,0 -0.8331,-0.3728 -0.8331,-0.8328 0,-0.4604 0.373,-0.8331 0.8331,-0.8331 z" />
        <path
           inkscape:connector-curvature="0"
           id="path958"
           style="fill:#ffffff;fill-rule:evenodd;stroke-width:0.14173713"
           d="m 58.2809,88.6791 c 0.46,0 0.8331,0.3727 0.8331,0.8331 0,0.46 -0.3731,0.8328 -0.8331,0.8328 -0.4601,0 -0.8331,-0.3728 -0.8331,-0.8328 0,-0.4604 0.373,-0.8331 0.8331,-0.8331 z" />
        <path
           inkscape:connector-curvature="0"
           id="path960"
           style="fill:#ffffff;fill-rule:evenodd;stroke-width:0.14173713"
           d="m 58.2809,90.6406 c 0.46,0 0.8331,0.3728 0.8331,0.8328 0,0.4604 -0.3731,0.8332 -0.8331,0.8332 -0.4601,0 -0.8331,-0.3728 -0.8331,-0.8332 0,-0.46 0.373,-0.8328 0.8331,-0.8328 z" />
        <path
           inkscape:connector-curvature="0"
           id="path962"
           style="fill:#ffffff;fill-rule:evenodd;stroke-width:0.14173713"
           d="m 58.2809,92.6022 c 0.46,0 0.8331,0.3728 0.8331,0.8328 0,0.4601 -0.3731,0.8331 -0.8331,0.8331 -0.4601,0 -0.8331,-0.373 -0.8331,-0.8331 0,-0.46 0.373,-0.8328 0.8331,-0.8328 z" />
        <path
           inkscape:connector-curvature="0"
           id="path964"
           style="fill:#ffffff;fill-rule:evenodd;stroke-width:0.14173713"
           d="m 58.2809,94.5635 c 0.46,0 0.8331,0.373 0.8331,0.8331 0,0.4601 -0.3731,0.8331 -0.8331,0.8331 -0.4601,0 -0.8331,-0.373 -0.8331,-0.8331 0,-0.4601 0.373,-0.8331 0.8331,-0.8331 z" />
        <path
           inkscape:connector-curvature="0"
           id="path966"
           style="fill:#ffffff;fill-rule:evenodd;stroke-width:0.14173713"
           d="m 58.2809,96.5251 c 0.46,0 0.8331,0.3727 0.8331,0.8331 0,0.46 -0.3731,0.8328 -0.8331,0.8328 -0.4601,0 -0.8331,-0.3728 -0.8331,-0.8328 0,-0.4604 0.373,-0.8331 0.8331,-0.8331 z" />
        <path
           inkscape:connector-curvature="0"
           id="path968"
           style="fill:#ffffff;fill-rule:evenodd;stroke-width:0.14173713"
           d="m 58.2809,98.4866 c 0.46,0 0.8331,0.3728 0.8331,0.8331 0,0.4601 -0.3731,0.8329 -0.8331,0.8329 -0.4601,0 -0.8331,-0.3728 -0.8331,-0.8329 0,-0.4603 0.373,-0.8331 0.8331,-0.8331 z" />
        <path
           inkscape:connector-curvature="0"
           id="path970"
           style="fill:#ffffff;fill-rule:evenodd;stroke-width:0.14173713"
           d="m 58.2809,100.4482 c 0.46,0 0.8331,0.3728 0.8331,0.8328 0,0.4604 -0.3731,0.8331 -0.8331,0.8331 -0.4601,0 -0.8331,-0.3727 -0.8331,-0.8331 0,-0.46 0.373,-0.8328 0.8331,-0.8328 z" />
        <path
           inkscape:connector-curvature="0"
           id="path972"
           style="fill:#ffffff;fill-rule:evenodd;stroke-width:0.14173713"
           d="m 58.2809,102.4098 c 0.46,0 0.8331,0.3728 0.8331,0.8328 0,0.4604 -0.3731,0.8331 -0.8331,0.8331 -0.4601,0 -0.8331,-0.3727 -0.8331,-0.8331 0,-0.46 0.373,-0.8328 0.8331,-0.8328 z" />
        <path
           inkscape:connector-curvature="0"
           id="path974"
           style="fill:#ffffff;fill-rule:evenodd;stroke-width:0.14173713"
           d="m 58.2809,104.3711 c 0.46,0 0.8331,0.373 0.8331,0.8331 0,0.4601 -0.3731,0.8331 -0.8331,0.8331 -0.4601,0 -0.8331,-0.373 -0.8331,-0.8331 0,-0.4601 0.373,-0.8331 0.8331,-0.8331 z" />
        <path
           inkscape:connector-curvature="0"
           id="path976"
           style="fill:#ffffff;fill-rule:evenodd;stroke-width:0.14173713"
           d="m 58.2809,106.3327 c 0.46,0 0.8331,0.3727 0.8331,0.8331 0,0.46 -0.3731,0.8328 -0.8331,0.8328 -0.4601,0 -0.8331,-0.3728 -0.8331,-0.8328 0,-0.4604 0.373,-0.8331 0.8331,-0.8331 z" />
        <path
           inkscape:connector-curvature="0"
           id="path978"
           style="fill:#ffffff;fill-rule:evenodd;stroke-width:0.14173713"
           d="m 58.2809,108.2942 c 0.46,0 0.8331,0.3728 0.8331,0.8331 0,0.4601 -0.3731,0.8329 -0.8331,0.8329 -0.4601,0 -0.8331,-0.3728 -0.8331,-0.8329 0,-0.4603 0.373,-0.8331 0.8331,-0.8331 z" />
        <path
           inkscape:connector-curvature="0"
           id="path980"
           style="fill:#ffffff;fill-rule:evenodd;stroke-width:0.14173713"
           d="m 58.2809,110.2558 c 0.46,0 0.8331,0.3728 0.8331,0.8328 0,0.4604 -0.3731,0.8331 -0.8331,0.8331 -0.4601,0 -0.8331,-0.3727 -0.8331,-0.8331 0,-0.46 0.373,-0.8328 0.8331,-0.8328 z" />
        <path
           inkscape:connector-curvature="0"
           id="path982"
           style="fill:#ffffff;fill-rule:evenodd;stroke-width:0.14173713"
           d="m 58.2809,112.2174 c 0.46,0 0.8331,0.3727 0.8331,0.8328 0,0.4604 -0.3731,0.8331 -0.8331,0.8331 -0.4601,0 -0.8331,-0.3727 -0.8331,-0.8331 0,-0.4601 0.373,-0.8328 0.8331,-0.8328 z" />
        <path
           inkscape:connector-curvature="0"
           id="path984"
           style="fill:#ffffff;fill-rule:evenodd;stroke-width:0.14173713"
           d="m 58.477,114.1787 c 0.4601,0 0.8329,0.373 0.8329,0.8331 0,0.46 -0.3728,0.8331 -0.8329,0.8331 -0.46,0 -0.8331,-0.3731 -0.8331,-0.8331 0,-0.4601 0.3731,-0.8331 0.8331,-0.8331 z" />
        <path
           inkscape:connector-curvature="0"
           id="path986"
           style="fill:#ffffff;fill-rule:evenodd;stroke-width:0.14173713"
           d="m 59.2617,116.1403 c 0.46,0 0.8328,0.3727 0.8328,0.8331 0,0.46 -0.3728,0.8328 -0.8328,0.8328 -0.4604,0 -0.8331,-0.3728 -0.8331,-0.8328 0,-0.4604 0.3727,-0.8331 0.8331,-0.8331 z" />
        <path
           inkscape:connector-curvature="0"
           id="path988"
           style="fill:#ffffff;fill-rule:evenodd;stroke-width:0.14173713"
           d="m 60.7654,117.644 c 0.4601,0 0.8332,0.3731 0.8332,0.8331 0,0.4601 -0.3731,0.8331 -0.8332,0.8331 -0.46,0 -0.8331,-0.373 -0.8331,-0.8331 0,-0.46 0.3731,-0.8331 0.8331,-0.8331 z" />
        <path
           inkscape:connector-curvature="0"
           id="path990"
           style="fill:#ffffff;fill-rule:evenodd;stroke-width:0.14173713"
           d="m 62.5309,118.6248 c 0.46,0 0.8328,0.3731 0.8328,0.8331 0,0.4601 -0.3728,0.8328 -0.8328,0.8328 -0.4604,0 -0.8331,-0.3727 -0.8331,-0.8328 0,-0.46 0.3727,-0.8331 0.8331,-0.8331 z" />
        <path
           inkscape:connector-curvature="0"
           id="path992"
           style="fill:#ffffff;fill-rule:evenodd;stroke-width:0.14173713"
           d="m 64.4924,119.4094 c 0.4601,0 0.8329,0.3728 0.8329,0.8332 0,0.46 -0.3728,0.8328 -0.8329,0.8328 -0.4603,0 -0.8331,-0.3728 -0.8331,-0.8328 0,-0.4604 0.3728,-0.8332 0.8331,-0.8332 z" />
        <path
           inkscape:connector-curvature="0"
           id="path994"
           style="fill:#ffffff;fill-rule:evenodd;stroke-width:0.14173713"
           d="m 66.5192,119.9979 c 0.4601,0 0.8331,0.3728 0.8331,0.8331 0,0.4601 -0.373,0.8328 -0.8331,0.8328 -0.4601,0 -0.8331,-0.3727 -0.8331,-0.8328 0,-0.4603 0.373,-0.8331 0.8331,-0.8331 z" />
        <path
           inkscape:connector-curvature="0"
           id="path996"
           style="fill:#ffffff;fill-rule:evenodd;stroke-width:0.14173713"
           d="m 68.6115,120.5209 c 0.4603,0 0.8331,0.3731 0.8331,0.8331 0,0.4601 -0.3728,0.8331 -0.8331,0.8331 -0.4601,0 -0.8329,-0.373 -0.8329,-0.8331 0,-0.46 0.3728,-0.8331 0.8329,-0.8331 z" />
        <path
           inkscape:connector-curvature="0"
           id="path998"
           style="fill:#ffffff;fill-rule:evenodd;stroke-width:0.14173713"
           d="m 70.573,121.0442 c 0.4601,0 0.8331,0.3727 0.8331,0.8328 0,0.4604 -0.373,0.8331 -0.8331,0.8331 -0.46,0 -0.8331,-0.3727 -0.8331,-0.8331 0,-0.4601 0.3731,-0.8328 0.8331,-0.8328 z" />
        <path
           inkscape:connector-curvature="0"
           id="path1000"
           style="fill:#ffffff;fill-rule:evenodd;stroke-width:0.14173713"
           d="m 72.5346,121.8288 c 0.4601,0 0.8328,0.3728 0.8328,0.8328 0,0.4604 -0.3727,0.8331 -0.8328,0.8331 -0.4603,0 -0.8331,-0.3727 -0.8331,-0.8331 0,-0.46 0.3728,-0.8328 0.8331,-0.8328 z" />
        <path
           inkscape:connector-curvature="0"
           id="path1002"
           style="fill:#ffffff;fill-rule:evenodd;stroke-width:0.14173713"
           d="m 74.2346,122.8096 c 0.46,0 0.8331,0.3728 0.8331,0.8328 0,0.4601 -0.3731,0.8331 -0.8331,0.8331 -0.4601,0 -0.8332,-0.373 -0.8332,-0.8331 0,-0.46 0.3731,-0.8328 0.8332,-0.8328 z" />
        <path
           inkscape:connector-curvature="0"
           id="path1004"
           style="fill:#ffffff;fill-rule:evenodd;stroke-width:0.14173713"
           d="m 75.7383,124.1824 c 0.4601,0 0.8331,0.3731 0.8331,0.8331 0,0.4601 -0.373,0.8331 -0.8331,0.8331 -0.46,0 -0.8328,-0.373 -0.8328,-0.8331 0,-0.46 0.3728,-0.8331 0.8328,-0.8331 z" />
        <path
           inkscape:connector-curvature="0"
           id="path1006"
           style="fill:#ffffff;fill-rule:evenodd;stroke-width:0.14173713"
           d="m 76.9808,125.7517 c 0.46,0 0.8328,0.3727 0.8328,0.8331 0,0.4601 -0.3728,0.8328 -0.8328,0.8328 -0.4604,0 -0.8331,-0.3727 -0.8331,-0.8328 0,-0.4604 0.3727,-0.8331 0.8331,-0.8331 z" />
        <path
           inkscape:connector-curvature="0"
           id="path1008"
           style="fill:#ffffff;fill-rule:evenodd;stroke-width:0.14173713"
           d="m 79.9883,128.6286 c 0.4601,0 0.8331,0.373 0.8331,0.8331 0,0.46 -0.373,0.8328 -0.8331,0.8328 -0.46,0 -0.8331,-0.3728 -0.8331,-0.8328 0,-0.4601 0.3731,-0.8331 0.8331,-0.8331 z" />
        <path
           inkscape:connector-curvature="0"
           id="path1010"
           style="fill:#ffffff;fill-rule:evenodd;stroke-width:0.14173713"
           d="m 81.6231,129.8055 c 0.46,0 0.8328,0.3728 0.8328,0.8331 0,0.4601 -0.3728,0.8328 -0.8328,0.8328 -0.4604,0 -0.8331,-0.3727 -0.8331,-0.8328 0,-0.4603 0.3727,-0.8331 0.8331,-0.8331 z" />
        <path
           inkscape:connector-curvature="0"
           id="path1012"
           style="fill:#ffffff;fill-rule:evenodd;stroke-width:0.14173713"
           d="m 83.4537,130.7208 c 0.46,0 0.8331,0.3731 0.8331,0.8331 0,0.4601 -0.3731,0.8331 -0.8331,0.8331 -0.4601,0 -0.8331,-0.373 -0.8331,-0.8331 0,-0.46 0.373,-0.8331 0.8331,-0.8331 z" />
        <path
           inkscape:connector-curvature="0"
           id="path1014"
           style="fill:#ffffff;fill-rule:evenodd;stroke-width:0.14173713"
           d="m 85.4807,131.3748 c 0.4601,0 0.8328,0.3727 0.8328,0.8331 0,0.46 -0.3727,0.8328 -0.8328,0.8328 -0.4603,0 -0.8331,-0.3728 -0.8331,-0.8328 0,-0.4604 0.3728,-0.8331 0.8331,-0.8331 z" />
        <path
           inkscape:connector-curvature="0"
           id="path1016"
           style="fill:#ffffff;fill-rule:evenodd;stroke-width:0.14173713"
           d="m 87.5075,131.5709 c 0.4601,0 0.8331,0.3728 0.8331,0.8331 0,0.4601 -0.373,0.8329 -0.8331,0.8329 -0.4601,0 -0.8331,-0.3728 -0.8331,-0.8329 0,-0.4603 0.373,-0.8331 0.8331,-0.8331 z" />
        <path
           inkscape:connector-curvature="0"
           id="path1018"
           style="fill:#ffffff;fill-rule:evenodd;stroke-width:0.14173713"
           d="m 78.4191,127.2555 c 0.4603,0 0.8331,0.373 0.8331,0.8331 0,0.46 -0.3728,0.8331 -0.8331,0.8331 -0.4601,0 -0.8329,-0.3731 -0.8329,-0.8331 0,-0.4601 0.3728,-0.8331 0.8329,-0.8331 z" />
        <path
           inkscape:connector-curvature="0"
           id="path1020"
           style="fill:#ffffff;fill-rule:evenodd;stroke-width:0.14173713"
           d="m 89.4691,40.0334 c -0.4604,0 -0.8331,0.3728 -0.8331,0.8328 0,0.4604 0.3727,0.8331 0.8331,0.8331 0.46,0 0.8328,-0.3727 0.8328,-0.8331 0,-0.46 -0.3728,-0.8328 -0.8328,-0.8328 z" />
        <path
           inkscape:connector-curvature="0"
           id="path1022"
           style="fill:#ffffff;fill-rule:evenodd;stroke-width:0.14173713"
           d="m 91.4306,40.4257 c -0.4603,0 -0.8331,0.3728 -0.8331,0.8329 0,0.4603 0.3728,0.8331 0.8331,0.8331 0.4601,0 0.8329,-0.3728 0.8329,-0.8331 0,-0.4601 -0.3728,-0.8329 -0.8329,-0.8329 z" />
        <path
           inkscape:connector-curvature="0"
           id="path1024"
           style="fill:#ffffff;fill-rule:evenodd;stroke-width:0.14173713"
           d="m 93.3919,41.0142 c -0.46,0 -0.8328,0.3728 -0.8328,0.8328 0,0.4604 0.3728,0.8331 0.8328,0.8331 0.4604,0 0.8331,-0.3727 0.8331,-0.8331 0,-0.46 -0.3727,-0.8328 -0.8331,-0.8328 z" />
        <path
           inkscape:connector-curvature="0"
           id="path1026"
           style="fill:#ffffff;fill-rule:evenodd;stroke-width:0.14173713"
           d="m 95.2228,41.864 c -0.46,0 -0.8331,0.3731 -0.8331,0.8331 0,0.4601 0.3731,0.8329 0.8331,0.8329 0.4601,0 0.8329,-0.3728 0.8329,-0.8329 0,-0.46 -0.3728,-0.8331 -0.8329,-0.8331 z" />
        <path
           inkscape:connector-curvature="0"
           id="path1028"
           style="fill:#ffffff;fill-rule:evenodd;stroke-width:0.14173713"
           d="m 96.9883,42.8448 c -0.4604,0 -0.8332,0.3728 -0.8332,0.8331 0,0.4601 0.3728,0.8328 0.8332,0.8328 0.46,0 0.8328,-0.3727 0.8328,-0.8328 0,-0.4603 -0.3728,-0.8331 -0.8328,-0.8331 z" />
        <path
           inkscape:connector-curvature="0"
           id="path1030"
           style="fill:#ffffff;fill-rule:evenodd;stroke-width:0.14173713"
           d="m 98.7537,43.9563 c -0.4604,0 -0.8331,0.373 -0.8331,0.8331 0,0.46 0.3727,0.8331 0.8331,0.8331 0.46,0 0.8328,-0.3731 0.8328,-0.8331 0,-0.4601 -0.3728,-0.8331 -0.8328,-0.8331 z" />
        <path
           inkscape:connector-curvature="0"
           id="path1032"
           style="fill:#ffffff;fill-rule:evenodd;stroke-width:0.14173713"
           d="m 100.3226,45.1332 c -0.46,0 -0.8328,0.3731 -0.8328,0.8331 0,0.4601 0.3728,0.8331 0.8328,0.8331 0.4604,0 0.8331,-0.373 0.8331,-0.8331 0,-0.46 -0.3727,-0.8331 -0.8331,-0.8331 z" />
        <path
           inkscape:connector-curvature="0"
           id="path1034"
           style="fill:#ffffff;fill-rule:evenodd;stroke-width:0.14173713"
           d="m 101.8919,46.3757 c -0.4601,0 -0.8328,0.3727 -0.8328,0.8328 0,0.4603 0.3727,0.8331 0.8328,0.8331 0.4604,0 0.8331,-0.3728 0.8331,-0.8331 0,-0.4601 -0.3727,-0.8328 -0.8331,-0.8328 z" />
        <path
           inkscape:connector-curvature="0"
           id="path1036"
           style="fill:#ffffff;fill-rule:evenodd;stroke-width:0.14173713"
           d="m 103.3957,47.7488 c -0.4601,0 -0.8328,0.3727 -0.8328,0.8328 0,0.4603 0.3727,0.8331 0.8328,0.8331 0.4603,0 0.8331,-0.3728 0.8331,-0.8331 0,-0.4601 -0.3728,-0.8328 -0.8331,-0.8328 z" />
        <path
           inkscape:connector-curvature="0"
           id="path1038"
           style="fill:#ffffff;fill-rule:evenodd;stroke-width:0.14173713"
           d="m 104.8997,49.1219 c -0.4603,0 -0.8331,0.3727 -0.8331,0.8328 0,0.4603 0.3728,0.8331 0.8331,0.8331 0.4601,0 0.8329,-0.3728 0.8329,-0.8331 0,-0.4601 -0.3728,-0.8328 -0.8329,-0.8328 z" />
        <path
           inkscape:connector-curvature="0"
           id="path1040"
           style="fill:#ffffff;fill-rule:evenodd;stroke-width:0.14173713"
           d="m 106.6649,50.2333 c -0.4601,0 -0.8328,0.3728 -0.8328,0.8328 0,0.4604 0.3727,0.8331 0.8328,0.8331 0.4603,0 0.8331,-0.3727 0.8331,-0.8331 0,-0.46 -0.3728,-0.8328 -0.8331,-0.8328 z" />
        <path
           inkscape:connector-curvature="0"
           id="path1042"
           style="fill:#ffffff;fill-rule:evenodd;stroke-width:0.14173713"
           d="m 108.6265,50.9525 c -0.4601,0 -0.8329,0.3727 -0.8329,0.8331 0,0.46 0.3728,0.8328 0.8329,0.8328 0.4603,0 0.8331,-0.3728 0.8331,-0.8328 0,-0.4604 -0.3728,-0.8331 -0.8331,-0.8331 z" />
        <path
           inkscape:connector-curvature="0"
           id="path1044"
           style="fill:#ffffff;fill-rule:evenodd;stroke-width:0.14173713"
           d="m 110.7187,51.2793 c -0.4601,0 -0.8328,0.373 -0.8328,0.8331 0,0.4601 0.3727,0.8331 0.8328,0.8331 0.4604,0 0.8331,-0.373 0.8331,-0.8331 0,-0.4601 -0.3727,-0.8331 -0.8331,-0.8331 z" />
        <path
           inkscape:connector-curvature="0"
           id="path1046"
           style="fill:#ffffff;fill-rule:evenodd;stroke-width:0.14173713"
           d="m 112.7458,51.4103 c -0.4604,0 -0.8331,0.3727 -0.8331,0.8328 0,0.4603 0.3727,0.8331 0.8331,0.8331 0.46,0 0.8328,-0.3728 0.8328,-0.8331 0,-0.4601 -0.3728,-0.8328 -0.8328,-0.8328 z" />
        <path
           inkscape:connector-curvature="0"
           id="path1048"
           style="fill:#ffffff;fill-rule:evenodd;stroke-width:0.14173713"
           d="m 114.7073,51.3448 c -0.4603,0 -0.8331,0.3727 -0.8331,0.8331 0,0.4601 0.3728,0.8328 0.8331,0.8328 0.4601,0 0.8329,-0.3727 0.8329,-0.8328 0,-0.4604 -0.3728,-0.8331 -0.8329,-0.8331 z" />
        <path
           inkscape:connector-curvature="0"
           id="path1050"
           style="fill:#ffffff;fill-rule:evenodd;stroke-width:0.14173713"
           d="m 116.7341,51.4103 c -0.4601,0 -0.8331,0.3727 -0.8331,0.8328 0,0.4603 0.373,0.8331 0.8331,0.8331 0.4601,0 0.8331,-0.3728 0.8331,-0.8331 0,-0.4601 -0.373,-0.8328 -0.8331,-0.8328 z" />
        <path
           inkscape:connector-curvature="0"
           id="path1052"
           style="fill:#ffffff;fill-rule:evenodd;stroke-width:0.14173713"
           d="m 116.7341,53.3716 c -0.4601,0 -0.8331,0.373 -0.8331,0.8331 0,0.46 0.373,0.8331 0.8331,0.8331 0.4601,0 0.8331,-0.3731 0.8331,-0.8331 0,-0.4601 -0.373,-0.8331 -0.8331,-0.8331 z" />
        <path
           inkscape:connector-curvature="0"
           id="path1054"
           style="fill:#ffffff;fill-rule:evenodd;stroke-width:0.14173713"
           d="m 116.7341,55.3331 c -0.4601,0 -0.8331,0.3731 -0.8331,0.8331 0,0.4601 0.373,0.8329 0.8331,0.8329 0.4601,0 0.8331,-0.3728 0.8331,-0.8329 0,-0.46 -0.373,-0.8331 -0.8331,-0.8331 z" />
        <path
           inkscape:connector-curvature="0"
           id="path1056"
           style="fill:#ffffff;fill-rule:evenodd;stroke-width:0.14173713"
           d="m 116.7341,57.2947 c -0.4601,0 -0.8331,0.3728 -0.8331,0.8331 0,0.4601 0.373,0.8328 0.8331,0.8328 0.4601,0 0.8331,-0.3727 0.8331,-0.8328 0,-0.4603 -0.373,-0.8331 -0.8331,-0.8331 z" />
        <path
           inkscape:connector-curvature="0"
           id="path1058"
           style="fill:#ffffff;fill-rule:evenodd;stroke-width:0.14173713"
           d="m 116.7341,59.2563 c -0.4601,0 -0.8331,0.3727 -0.8331,0.8328 0,0.4603 0.373,0.8331 0.8331,0.8331 0.4601,0 0.8331,-0.3728 0.8331,-0.8331 0,-0.4601 -0.373,-0.8328 -0.8331,-0.8328 z" />
        <path
           inkscape:connector-curvature="0"
           id="path1060"
           style="fill:#ffffff;fill-rule:evenodd;stroke-width:0.14173713"
           d="m 116.7341,61.2179 c -0.4601,0 -0.8331,0.3727 -0.8331,0.8328 0,0.4603 0.373,0.8331 0.8331,0.8331 0.4601,0 0.8331,-0.3728 0.8331,-0.8331 0,-0.4601 -0.373,-0.8328 -0.8331,-0.8328 z" />
        <path
           inkscape:connector-curvature="0"
           id="path1062"
           style="fill:#ffffff;fill-rule:evenodd;stroke-width:0.14173713"
           d="m 116.7341,63.1791 c -0.4601,0 -0.8331,0.3731 -0.8331,0.8332 0,0.46 0.373,0.8331 0.8331,0.8331 0.4601,0 0.8331,-0.3731 0.8331,-0.8331 0,-0.4601 -0.373,-0.8332 -0.8331,-0.8332 z" />
        <path
           inkscape:connector-curvature="0"
           id="path1064"
           style="fill:#ffffff;fill-rule:evenodd;stroke-width:0.14173713"
           d="m 116.7341,65.1407 c -0.4601,0 -0.8331,0.3731 -0.8331,0.8331 0,0.4601 0.373,0.8331 0.8331,0.8331 0.4601,0 0.8331,-0.373 0.8331,-0.8331 0,-0.46 -0.373,-0.8331 -0.8331,-0.8331 z" />
        <path
           inkscape:connector-curvature="0"
           id="path1066"
           style="fill:#ffffff;fill-rule:evenodd;stroke-width:0.14173713"
           d="m 116.7341,67.1023 c -0.4601,0 -0.8331,0.3728 -0.8331,0.8331 0,0.4601 0.373,0.8328 0.8331,0.8328 0.4601,0 0.8331,-0.3727 0.8331,-0.8328 0,-0.4603 -0.373,-0.8331 -0.8331,-0.8331 z" />
        <path
           inkscape:connector-curvature="0"
           id="path1068"
           style="fill:#ffffff;fill-rule:evenodd;stroke-width:0.14173713"
           d="m 116.7341,69.0639 c -0.4601,0 -0.8331,0.3727 -0.8331,0.8328 0,0.4603 0.373,0.8331 0.8331,0.8331 0.4601,0 0.8331,-0.3728 0.8331,-0.8331 0,-0.4601 -0.373,-0.8328 -0.8331,-0.8328 z" />
        <path
           inkscape:connector-curvature="0"
           id="path1070"
           style="fill:#ffffff;fill-rule:evenodd;stroke-width:0.14173713"
           d="m 116.7341,71.0254 c -0.4601,0 -0.8331,0.3728 -0.8331,0.8329 0,0.4603 0.373,0.8331 0.8331,0.8331 0.4601,0 0.8331,-0.3728 0.8331,-0.8331 0,-0.4601 -0.373,-0.8329 -0.8331,-0.8329 z" />
        <path
           inkscape:connector-curvature="0"
           id="path1072"
           style="fill:#ffffff;fill-rule:evenodd;stroke-width:0.14173713"
           d="m 116.7341,72.9867 c -0.4601,0 -0.8331,0.3731 -0.8331,0.8331 0,0.4601 0.373,0.8331 0.8331,0.8331 0.4601,0 0.8331,-0.373 0.8331,-0.8331 0,-0.46 -0.373,-0.8331 -0.8331,-0.8331 z" />
        <path
           inkscape:connector-curvature="0"
           id="path1074"
           style="fill:#ffffff;fill-rule:evenodd;stroke-width:0.14173713"
           d="m 116.7341,74.9483 c -0.4601,0 -0.8331,0.3731 -0.8331,0.8331 0,0.4601 0.373,0.8331 0.8331,0.8331 0.4601,0 0.8331,-0.373 0.8331,-0.8331 0,-0.46 -0.373,-0.8331 -0.8331,-0.8331 z" />
        <path
           inkscape:connector-curvature="0"
           id="path1076"
           style="fill:#ffffff;fill-rule:evenodd;stroke-width:0.14173713"
           d="m 116.7341,76.9099 c -0.4601,0 -0.8331,0.3727 -0.8331,0.8331 0,0.4601 0.373,0.8328 0.8331,0.8328 0.4601,0 0.8331,-0.3727 0.8331,-0.8328 0,-0.4604 -0.373,-0.8331 -0.8331,-0.8331 z" />
        <path
           inkscape:connector-curvature="0"
           id="path1078"
           style="fill:#ffffff;fill-rule:evenodd;stroke-width:0.14173713"
           d="m 116.7341,78.8715 c -0.4601,0 -0.8331,0.3727 -0.8331,0.8331 0,0.46 0.373,0.8328 0.8331,0.8328 0.4601,0 0.8331,-0.3728 0.8331,-0.8328 0,-0.4604 -0.373,-0.8331 -0.8331,-0.8331 z" />
        <path
           inkscape:connector-curvature="0"
           id="path1080"
           style="fill:#ffffff;fill-rule:evenodd;stroke-width:0.14173713"
           d="m 116.7341,80.833 c -0.4601,0 -0.8331,0.3728 -0.8331,0.8329 0,0.4603 0.373,0.8331 0.8331,0.8331 0.4601,0 0.8331,-0.3728 0.8331,-0.8331 0,-0.4601 -0.373,-0.8329 -0.8331,-0.8329 z" />
        <path
           inkscape:connector-curvature="0"
           id="path1082"
           style="fill:#ffffff;fill-rule:evenodd;stroke-width:0.14173713"
           d="m 116.7341,82.7946 c -0.4601,0 -0.8331,0.3728 -0.8331,0.8328 0,0.4601 0.373,0.8331 0.8331,0.8331 0.4601,0 0.8331,-0.373 0.8331,-0.8331 0,-0.46 -0.373,-0.8328 -0.8331,-0.8328 z" />
        <path
           inkscape:connector-curvature="0"
           id="path1084"
           style="fill:#ffffff;fill-rule:evenodd;stroke-width:0.14173713"
           d="m 116.7341,84.7559 c -0.4601,0 -0.8331,0.373 -0.8331,0.8331 0,0.4601 0.373,0.8331 0.8331,0.8331 0.4601,0 0.8331,-0.373 0.8331,-0.8331 0,-0.4601 -0.373,-0.8331 -0.8331,-0.8331 z" />
        <path
           inkscape:connector-curvature="0"
           id="path1086"
           style="fill:#ffffff;fill-rule:evenodd;stroke-width:0.14173713"
           d="m 116.7341,86.7175 c -0.4601,0 -0.8331,0.3727 -0.8331,0.8331 0,0.46 0.373,0.8328 0.8331,0.8328 0.4601,0 0.8331,-0.3728 0.8331,-0.8328 0,-0.4604 -0.373,-0.8331 -0.8331,-0.8331 z" />
        <path
           inkscape:connector-curvature="0"
           id="path1088"
           style="fill:#ffffff;fill-rule:evenodd;stroke-width:0.14173713"
           d="m 116.7341,88.6791 c -0.4601,0 -0.8331,0.3727 -0.8331,0.8331 0,0.46 0.373,0.8328 0.8331,0.8328 0.4601,0 0.8331,-0.3728 0.8331,-0.8328 0,-0.4604 -0.373,-0.8331 -0.8331,-0.8331 z" />
        <path
           inkscape:connector-curvature="0"
           id="path1090"
           style="fill:#ffffff;fill-rule:evenodd;stroke-width:0.14173713"
           d="m 116.7341,90.6406 c -0.4601,0 -0.8331,0.3728 -0.8331,0.8328 0,0.4604 0.373,0.8332 0.8331,0.8332 0.4601,0 0.8331,-0.3728 0.8331,-0.8332 0,-0.46 -0.373,-0.8328 -0.8331,-0.8328 z" />
        <path
           inkscape:connector-curvature="0"
           id="path1092"
           style="fill:#ffffff;fill-rule:evenodd;stroke-width:0.14173713"
           d="m 116.7341,92.6022 c -0.4601,0 -0.8331,0.3728 -0.8331,0.8328 0,0.4601 0.373,0.8331 0.8331,0.8331 0.4601,0 0.8331,-0.373 0.8331,-0.8331 0,-0.46 -0.373,-0.8328 -0.8331,-0.8328 z" />
        <path
           inkscape:connector-curvature="0"
           id="path1094"
           style="fill:#ffffff;fill-rule:evenodd;stroke-width:0.14173713"
           d="m 116.7341,94.5635 c -0.4601,0 -0.8331,0.373 -0.8331,0.8331 0,0.4601 0.373,0.8331 0.8331,0.8331 0.4601,0 0.8331,-0.373 0.8331,-0.8331 0,-0.4601 -0.373,-0.8331 -0.8331,-0.8331 z" />
        <path
           inkscape:connector-curvature="0"
           id="path1096"
           style="fill:#ffffff;fill-rule:evenodd;stroke-width:0.14173713"
           d="m 116.7341,96.5251 c -0.4601,0 -0.8331,0.3727 -0.8331,0.8331 0,0.46 0.373,0.8328 0.8331,0.8328 0.4601,0 0.8331,-0.3728 0.8331,-0.8328 0,-0.4604 -0.373,-0.8331 -0.8331,-0.8331 z" />
        <path
           inkscape:connector-curvature="0"
           id="path1098"
           style="fill:#ffffff;fill-rule:evenodd;stroke-width:0.14173713"
           d="m 116.7341,98.4866 c -0.4601,0 -0.8331,0.3728 -0.8331,0.8331 0,0.4601 0.373,0.8329 0.8331,0.8329 0.4601,0 0.8331,-0.3728 0.8331,-0.8329 0,-0.4603 -0.373,-0.8331 -0.8331,-0.8331 z" />
        <path
           inkscape:connector-curvature="0"
           id="path1100"
           style="fill:#ffffff;fill-rule:evenodd;stroke-width:0.14173713"
           d="m 116.7341,100.4482 c -0.4601,0 -0.8331,0.3728 -0.8331,0.8328 0,0.4604 0.373,0.8331 0.8331,0.8331 0.4601,0 0.8331,-0.3727 0.8331,-0.8331 0,-0.46 -0.373,-0.8328 -0.8331,-0.8328 z" />
        <path
           inkscape:connector-curvature="0"
           id="path1102"
           style="fill:#ffffff;fill-rule:evenodd;stroke-width:0.14173713"
           d="m 116.7341,102.4098 c -0.4601,0 -0.8331,0.3728 -0.8331,0.8328 0,0.4604 0.373,0.8331 0.8331,0.8331 0.4601,0 0.8331,-0.3727 0.8331,-0.8331 0,-0.46 -0.373,-0.8328 -0.8331,-0.8328 z" />
        <path
           inkscape:connector-curvature="0"
           id="path1104"
           style="fill:#ffffff;fill-rule:evenodd;stroke-width:0.14173713"
           d="m 116.7341,104.3711 c -0.4601,0 -0.8331,0.373 -0.8331,0.8331 0,0.4601 0.373,0.8331 0.8331,0.8331 0.4601,0 0.8331,-0.373 0.8331,-0.8331 0,-0.4601 -0.373,-0.8331 -0.8331,-0.8331 z" />
        <path
           inkscape:connector-curvature="0"
           id="path1106"
           style="fill:#ffffff;fill-rule:evenodd;stroke-width:0.14173713"
           d="m 116.7341,106.3327 c -0.4601,0 -0.8331,0.3727 -0.8331,0.8331 0,0.46 0.373,0.8328 0.8331,0.8328 0.4601,0 0.8331,-0.3728 0.8331,-0.8328 0,-0.4604 -0.373,-0.8331 -0.8331,-0.8331 z" />
        <path
           inkscape:connector-curvature="0"
           id="path1108"
           style="fill:#ffffff;fill-rule:evenodd;stroke-width:0.14173713"
           d="m 116.7341,108.2942 c -0.4601,0 -0.8331,0.3728 -0.8331,0.8331 0,0.4601 0.373,0.8329 0.8331,0.8329 0.4601,0 0.8331,-0.3728 0.8331,-0.8329 0,-0.4603 -0.373,-0.8331 -0.8331,-0.8331 z" />
        <path
           inkscape:connector-curvature="0"
           id="path1110"
           style="fill:#ffffff;fill-rule:evenodd;stroke-width:0.14173713"
           d="m 116.7341,110.2558 c -0.4601,0 -0.8331,0.3728 -0.8331,0.8328 0,0.4604 0.373,0.8331 0.8331,0.8331 0.4601,0 0.8331,-0.3727 0.8331,-0.8331 0,-0.46 -0.373,-0.8328 -0.8331,-0.8328 z" />
        <path
           inkscape:connector-curvature="0"
           id="path1112"
           style="fill:#ffffff;fill-rule:evenodd;stroke-width:0.14173713"
           d="m 116.7341,112.2174 c -0.4601,0 -0.8331,0.3727 -0.8331,0.8328 0,0.4604 0.373,0.8331 0.8331,0.8331 0.4601,0 0.8331,-0.3727 0.8331,-0.8331 0,-0.4601 -0.373,-0.8328 -0.8331,-0.8328 z" />
        <path
           inkscape:connector-curvature="0"
           id="path1114"
           style="fill:#ffffff;fill-rule:evenodd;stroke-width:0.14173713"
           d="m 116.538,114.1787 c -0.4601,0 -0.8331,0.373 -0.8331,0.8331 0,0.46 0.373,0.8331 0.8331,0.8331 0.46,0 0.8331,-0.3731 0.8331,-0.8331 0,-0.4601 -0.3731,-0.8331 -0.8331,-0.8331 z" />
        <path
           inkscape:connector-curvature="0"
           id="path1116"
           style="fill:#ffffff;fill-rule:evenodd;stroke-width:0.14173713"
           d="m 115.7533,116.1403 c -0.46,0 -0.8328,0.3727 -0.8328,0.8331 0,0.46 0.3728,0.8328 0.8328,0.8328 0.4601,0 0.8331,-0.3728 0.8331,-0.8328 0,-0.4604 -0.373,-0.8331 -0.8331,-0.8331 z" />
        <path
           inkscape:connector-curvature="0"
           id="path1118"
           style="fill:#ffffff;fill-rule:evenodd;stroke-width:0.14173713"
           d="m 114.2495,117.644 c -0.46,0 -0.8331,0.3731 -0.8331,0.8331 0,0.4601 0.3731,0.8331 0.8331,0.8331 0.4601,0 0.8331,-0.373 0.8331,-0.8331 0,-0.46 -0.373,-0.8331 -0.8331,-0.8331 z" />
        <path
           inkscape:connector-curvature="0"
           id="path1120"
           style="fill:#ffffff;fill-rule:evenodd;stroke-width:0.14173713"
           d="m 112.4841,118.6248 c -0.46,0 -0.8328,0.3731 -0.8328,0.8331 0,0.4601 0.3728,0.8328 0.8328,0.8328 0.4601,0 0.8331,-0.3727 0.8331,-0.8328 0,-0.46 -0.373,-0.8331 -0.8331,-0.8331 z" />
        <path
           inkscape:connector-curvature="0"
           id="path1122"
           style="fill:#ffffff;fill-rule:evenodd;stroke-width:0.14173713"
           d="m 110.5226,119.4094 c -0.4601,0 -0.8329,0.3728 -0.8329,0.8332 0,0.46 0.3728,0.8328 0.8329,0.8328 0.4603,0 0.8331,-0.3728 0.8331,-0.8328 0,-0.4604 -0.3728,-0.8332 -0.8331,-0.8332 z" />
        <path
           inkscape:connector-curvature="0"
           id="path1124"
           style="fill:#ffffff;fill-rule:evenodd;stroke-width:0.14173713"
           d="m 108.4958,119.9979 c -0.4601,0 -0.8331,0.3728 -0.8331,0.8331 0,0.4601 0.373,0.8328 0.8331,0.8328 0.46,0 0.8328,-0.3727 0.8328,-0.8328 0,-0.4603 -0.3728,-0.8331 -0.8328,-0.8331 z" />
        <path
           inkscape:connector-curvature="0"
           id="path1126"
           style="fill:#ffffff;fill-rule:evenodd;stroke-width:0.14173713"
           d="m 106.4035,120.5209 c -0.4603,0 -0.8331,0.3731 -0.8331,0.8331 0,0.4601 0.3728,0.8331 0.8331,0.8331 0.4601,0 0.8328,-0.373 0.8328,-0.8331 0,-0.46 -0.3727,-0.8331 -0.8328,-0.8331 z" />
        <path
           inkscape:connector-curvature="0"
           id="path1128"
           style="fill:#ffffff;fill-rule:evenodd;stroke-width:0.14173713"
           d="m 104.442,121.0442 c -0.4601,0 -0.8331,0.3727 -0.8331,0.8328 0,0.4604 0.373,0.8331 0.8331,0.8331 0.46,0 0.8331,-0.3727 0.8331,-0.8331 0,-0.4601 -0.3731,-0.8328 -0.8331,-0.8328 z" />
        <path
           inkscape:connector-curvature="0"
           id="path1130"
           style="fill:#ffffff;fill-rule:evenodd;stroke-width:0.14173713"
           d="m 102.4804,121.8288 c -0.4601,0 -0.8328,0.3728 -0.8328,0.8328 0,0.4604 0.3727,0.8331 0.8328,0.8331 0.46,0 0.8331,-0.3727 0.8331,-0.8331 0,-0.46 -0.3731,-0.8328 -0.8331,-0.8328 z" />
        <path
           inkscape:connector-curvature="0"
           id="path1132"
           style="fill:#ffffff;fill-rule:evenodd;stroke-width:0.14173713"
           d="m 100.7804,122.8096 c -0.46,0 -0.8331,0.3728 -0.8331,0.8328 0,0.4601 0.3731,0.8331 0.8331,0.8331 0.4601,0 0.8331,-0.373 0.8331,-0.8331 0,-0.46 -0.373,-0.8328 -0.8331,-0.8328 z" />
        <path
           inkscape:connector-curvature="0"
           id="path1134"
           style="fill:#ffffff;fill-rule:evenodd;stroke-width:0.14173713"
           d="m 99.2767,124.1824 c -0.4604,0 -0.8331,0.3731 -0.8331,0.8331 0,0.4601 0.3727,0.8331 0.8331,0.8331 0.46,0 0.8328,-0.373 0.8328,-0.8331 0,-0.46 -0.3728,-0.8331 -0.8328,-0.8331 z" />
        <path
           inkscape:connector-curvature="0"
           id="path1136"
           style="fill:#ffffff;fill-rule:evenodd;stroke-width:0.14173713"
           d="m 98.0342,125.7517 c -0.46,0 -0.8328,0.3727 -0.8328,0.8331 0,0.4601 0.3728,0.8328 0.8328,0.8328 0.4604,0 0.8331,-0.3727 0.8331,-0.8328 0,-0.4604 -0.3727,-0.8331 -0.8331,-0.8331 z" />
        <path
           inkscape:connector-curvature="0"
           id="path1138"
           style="fill:#ffffff;fill-rule:evenodd;stroke-width:0.14173713"
           d="m 95.0267,128.6286 c -0.4601,0 -0.8331,0.373 -0.8331,0.8331 0,0.46 0.373,0.8328 0.8331,0.8328 0.46,0 0.8328,-0.3728 0.8328,-0.8328 0,-0.4601 -0.3728,-0.8331 -0.8328,-0.8331 z" />
        <path
           inkscape:connector-curvature="0"
           id="path1140"
           style="fill:#ffffff;fill-rule:evenodd;stroke-width:0.14173713"
           d="m 93.3919,129.8055 c -0.46,0 -0.8328,0.3728 -0.8328,0.8331 0,0.4601 0.3728,0.8328 0.8328,0.8328 0.4604,0 0.8331,-0.3727 0.8331,-0.8328 0,-0.4603 -0.3727,-0.8331 -0.8331,-0.8331 z" />
        <path
           inkscape:connector-curvature="0"
           id="path1142"
           style="fill:#ffffff;fill-rule:evenodd;stroke-width:0.14173713"
           d="m 91.5613,130.7208 c -0.46,0 -0.8331,0.3731 -0.8331,0.8331 0,0.4601 0.3731,0.8331 0.8331,0.8331 0.4601,0 0.8331,-0.373 0.8331,-0.8331 0,-0.46 -0.373,-0.8331 -0.8331,-0.8331 z" />
        <path
           inkscape:connector-curvature="0"
           id="path1144"
           style="fill:#ffffff;fill-rule:evenodd;stroke-width:0.14173713"
           d="m 89.5343,131.3748 c -0.4601,0 -0.8329,0.3727 -0.8329,0.8331 0,0.46 0.3728,0.8328 0.8329,0.8328 0.4603,0 0.8331,-0.3728 0.8331,-0.8328 0,-0.4604 -0.3728,-0.8331 -0.8331,-0.8331 z" />
        <path
           inkscape:connector-curvature="0"
           id="path1146"
           style="fill:#ffffff;fill-rule:evenodd;stroke-width:0.14173713"
           d="m 96.5959,127.2555 c -0.4603,0 -0.8331,0.373 -0.8331,0.8331 0,0.46 0.3728,0.8331 0.8331,0.8331 0.4601,0 0.8329,-0.3731 0.8329,-0.8331 0,-0.4601 -0.3728,-0.8331 -0.8329,-0.8331 z" />
      </g>
      <path
         inkscape:connector-curvature="0"
         id="path1149"
         style="fill:#ffffff;fill-rule:evenodd;stroke:#ffffff;stroke-width:0.04821897;stroke-linecap:butt;stroke-linejoin:miter;stroke-dasharray:none"
         d="m 62.8719,67.0677 c 0.0669,-0.0941 0.1352,-0.1803 0.2058,-0.2585 0.0697,-0.0777 0.1437,-0.1398 0.2231,-0.1845 0.0779,-0.0448 0.1644,-0.0652 0.2582,-0.061 0.0938,0.0048 0.1979,0.0425 0.3124,0.1134 0.0513,0.0318 0.1128,0.0717 0.1842,0.1205 0.0709,0.0482 0.1494,0.0995 0.2325,0.1542 0.0842,0.0544 0.1703,0.1074 0.2579,0.1587 0.089,0.051 0.1752,0.0961 0.2597,0.1352 0.0847,0.038 0.1641,0.0655 0.2378,0.0822 l 0.2256,-0.3106 -0.0394,-0.0287 c -0.0422,0.0185 -0.0949,0.0187 -0.1598,6e-4 C 65.0058,66.9719 64.9358,66.9436 64.8604,66.903 64.7858,66.8633 64.7116,66.8194 64.6384,66.7718 64.5647,66.7242 64.499,66.6782 64.4394,66.636 64.3799,66.5938 64.3326,66.562 64.2988,66.5396 64.1959,66.4648 64.0962,66.4013 64.0015,66.3491 63.9068,66.297 63.8141,66.2598 63.724,66.24 c -0.0905,-0.0198 -0.1812,-0.0176 -0.2705,0.0054 -0.0892,0.0229 -0.1808,0.0726 -0.2738,0.1499 l -0.0088,-0.0062 c 0.0431,-0.1006 0.0607,-0.2001 0.0542,-0.2985 -0.0071,-0.0989 -0.034,-0.1942 -0.0783,-0.2854 -0.045,-0.091 -0.1017,-0.1755 -0.1709,-0.2535 -0.0692,-0.0771 -0.1443,-0.1451 -0.2253,-0.204 -0.1662,-0.1197 -0.3206,-0.1951 -0.4658,-0.2254 -0.1434,-0.0312 -0.2803,-0.0244 -0.4079,0.0198 -0.1275,0.0434 -0.2494,0.1174 -0.3651,0.2231 -0.1159,0.1041 -0.2279,0.2322 -0.3365,0.383 l -0.4612,0.6347 3.2831,2.3853 0.2067,-0.2846 -1.5449,-1.1225 z m -1.6971,-0.7849 0.299,-0.4113 c 0.0805,-0.1123 0.1602,-0.2035 0.2396,-0.273 0.0793,-0.0691 0.1621,-0.1154 0.2474,-0.1377 0.0856,-0.0216 0.178,-0.0179 0.2767,0.0113 0.0986,0.0303 0.2086,0.0893 0.3279,0.176 0.1163,0.0856 0.2002,0.1729 0.2526,0.2617 0.0536,0.0876 0.0845,0.1737 0.0921,0.2571 0.0085,0.0833 0.0032,0.1596 -0.0141,0.2293 -0.0185,0.0703 -0.0403,0.1292 -0.0661,0.1786 -0.0263,0.0484 -0.0468,0.0827 -0.0623,0.1029 l -0.3626,0.4989 z m 6.0687,-1.4391 -0.2257,-0.218 -1.0522,1.0896 -1.1908,-1.15 0.9397,-0.9729 -0.226,-0.2179 -0.9396,0.9728 -1.0509,-1.0148 1.0336,-1.0704 -0.2257,-0.2179 -1.2778,1.3232 2.9188,2.8187 z m 1.0638,-1.0511 -1.1786,-1.4049 0.4101,-0.3444 c 0.0318,-0.0266 0.0723,-0.0666 0.1202,-0.1173 0.0482,-0.0519 0.0978,-0.114 0.1488,-0.1837 0.0499,-0.0689 0.0959,-0.1452 0.135,-0.2262 0.0397,-0.0803 0.0672,-0.1639 0.0822,-0.2481 0.028,-0.1505 0.0141,-0.299 -0.0411,-0.4453 -0.0559,-0.1463 -0.1469,-0.2939 -0.2727,-0.4425 -0.1332,-0.1587 -0.2653,-0.2727 -0.3983,-0.3416 -0.1315,-0.0683 -0.2662,-0.0966 -0.4053,-0.0844 -0.1384,0.0122 -0.2832,0.0609 -0.436,0.1454 -0.1525,0.0847 -0.3158,0.2001 -0.4907,0.3481 l -0.551,0.4623 2.6084,3.1085 z m -2.4066,-2.8681 0.3937,-0.3303 c 0.1083,-0.0884 0.2112,-0.1581 0.3104,-0.2083 0.0975,-0.0505 0.1942,-0.0785 0.288,-0.0816 0.0933,-0.0043 0.1877,0.0201 0.2812,0.0722 0.0938,0.0522 0.1902,0.1372 0.2886,0.2549 0.1148,0.1377 0.1874,0.2664 0.2168,0.3841 0.0301,0.1173 0.0247,0.2287 -0.0139,0.3328 -0.0379,0.1051 -0.102,0.2072 -0.191,0.3055 -0.0887,0.099 -0.1936,0.1985 -0.3155,0.2988 l -0.2322,0.1947 z m 4.0249,0.1443 c 0.1415,0.2038 0.2934,0.3549 0.455,0.4532 0.1624,0.0987 0.3359,0.1389 0.5224,0.1205 0.1854,-0.0184 0.3844,-0.1018 0.597,-0.2495 0.1783,-0.1261 0.3081,-0.2565 0.39,-0.3909 0.0819,-0.1357 0.123,-0.2755 0.1239,-0.4203 6e-4,-0.1435 -0.0312,-0.2929 -0.0955,-0.4459 -0.0652,-0.1528 -0.1542,-0.3104 -0.2688,-0.4726 l -1.62,-2.3133 -0.2882,0.2018 1.6698,2.3845 c 0.0791,0.1117 0.1421,0.2206 0.1897,0.326 0.0468,0.106 0.0711,0.2089 0.0717,0.3084 0.002,0.1001 -0.0255,0.1976 -0.0833,0.2931 -0.0567,0.0947 -0.1497,0.1871 -0.2781,0.2784 -0.1242,0.087 -0.2381,0.1426 -0.3399,0.1655 -0.1026,0.0233 -0.1979,0.0193 -0.2854,-0.0127 -0.0885,-0.0318 -0.173,-0.0882 -0.2535,-0.1673 -0.0805,-0.0788 -0.1621,-0.178 -0.2437,-0.2962 l -1.6881,-2.4109 -0.2883,0.2019 z m 3.2414,-3.1315 c 0.1049,-0.0541 0.2067,-0.1012 0.3045,-0.1409 0.098,-0.0399 0.193,-0.0669 0.2831,-0.0805 0.091,-0.0141 0.1775,-0.0093 0.2608,0.0139 0.0825,0.0227 0.1613,0.0698 0.2362,0.1395 0.0748,0.0714 0.1457,0.1709 0.2114,0.3002 0.0783,0.1536 0.1239,0.2902 0.1352,0.4099 0.0122,0.119 -0.0039,0.2267 -0.0499,0.3211 -0.0462,0.0941 -0.117,0.1812 -0.2134,0.2586 -0.0969,0.0776 -0.2143,0.1513 -0.3535,0.2213 l -0.3906,0.199 -0.7515,-1.4748 z m -0.4702,-0.1125 -0.6634,-1.3017 0.2943,-0.1497 c 0.1182,-0.0623 0.2324,-0.1136 0.343,-0.1553 0.1102,-0.0411 0.2151,-0.0624 0.3155,-0.0638 0.1,-5e-4 0.1939,0.0287 0.2809,0.0888 0.087,0.0595 0.1672,0.1595 0.2404,0.3004 0.0737,0.1446 0.1136,0.273 0.1204,0.3838 0.0083,0.1114 -0.0124,0.2098 -0.0612,0.2954 -0.0487,0.0865 -0.1196,0.1641 -0.2137,0.2353 -0.0933,0.0709 -0.2053,0.138 -0.3331,0.2024 z m 1.2197,1.9409 c 0.157,-0.0788 0.3025,-0.161 0.4346,-0.2469 0.1326,-0.0856 0.2454,-0.1783 0.3407,-0.2775 0.0952,-0.0993 0.1655,-0.209 0.2106,-0.3291 0.0451,-0.1199 0.0587,-0.2546 0.0414,-0.4014 -0.0176,-0.148 -0.0726,-0.3133 -0.1647,-0.4961 -0.0717,-0.1426 -0.1585,-0.2613 -0.2582,-0.3574 -0.0998,-0.0947 -0.2143,-0.1608 -0.3436,-0.1982 -0.1284,-0.0368 -0.2716,-0.0385 -0.4309,-0.0051 l -0.0048,-0.0096 c 0.0955,-0.1043 0.159,-0.2166 0.1894,-0.3356 0.03,-0.1197 0.034,-0.241 0.0116,-0.366 -0.0218,-0.1247 -0.0644,-0.2475 -0.127,-0.3685 -0.0675,-0.1346 -0.1519,-0.2492 -0.2554,-0.3447 -0.1023,-0.0952 -0.2254,-0.1621 -0.3682,-0.1998 -0.0939,-0.0241 -0.1888,-0.0292 -0.2838,-0.0173 -0.0947,0.013 -0.1882,0.036 -0.2792,0.0714 -0.0918,0.0346 -0.1783,0.0737 -0.2608,0.1165 l -0.7906,0.4028 1.8423,3.6156 z m 4.2369,-1.8638 -0.1122,-0.2931 -1.4043,0.5391 -1.3416,-3.4954 -0.3286,0.1262 1.4542,3.7882 z m 1.4315,-0.4751 -1.0502,-3.9195 -0.3393,0.0907 1.0502,3.9198 z m 2.9226,-2.0401 c 0.0147,0.1001 0.0238,0.2038 0.0275,0.3121 0.0042,0.1074 -0.0015,0.2137 -0.017,0.3181 -0.0148,0.1048 -0.0434,0.2015 -0.0854,0.2908 -0.0419,0.0887 -0.1012,0.1638 -0.1771,0.2259 -0.076,0.061 -0.1741,0.1029 -0.2929,0.125 -0.1459,0.0238 -0.2738,0.0153 -0.3838,-0.0275 -0.1111,-0.0417 -0.2052,-0.1085 -0.2854,-0.1998 -0.08,-0.091 -0.1483,-0.1973 -0.2035,-0.3184 C 81.0334,55.9911 80.9875,55.8635 80.9501,55.7303 80.9127,55.5968 80.8824,55.4655 80.858,55.338 80.8339,55.2104 80.8123,55.0942 80.7951,54.991 80.778,54.9 80.7605,54.794 80.7409,54.6738 c -0.0193,-0.1202 -0.0343,-0.2466 -0.0448,-0.3801 -0.011,-0.1338 -0.0113,-0.2656 -0.0022,-0.3963 0.0099,-0.1307 0.0351,-0.2523 0.0768,-0.3643 0.0416,-0.1114 0.1046,-0.206 0.1888,-0.2831 0.0853,-0.0774 0.1973,-0.1293 0.3364,-0.1545 0.1341,-0.023 0.2526,-0.0162 0.3541,0.0198 0.1015,0.0354 0.1896,0.093 0.2628,0.1715 0.0734,0.0785 0.1346,0.1706 0.1836,0.2772 0.0488,0.1058 0.0879,0.218 0.116,0.3368 l 0.3464,-0.0612 c -0.0309,-0.1704 -0.0831,-0.3257 -0.1559,-0.4678 -0.0723,-0.142 -0.1633,-0.2622 -0.2741,-0.3611 -0.1109,-0.0984 -0.2401,-0.1681 -0.3867,-0.21 -0.1465,-0.0411 -0.3095,-0.0471 -0.4901,-0.0162 -0.1757,0.0318 -0.3223,0.0887 -0.4388,0.1698 -0.1165,0.0811 -0.2089,0.1808 -0.2761,0.2976 -0.068,0.1182 -0.1168,0.2478 -0.146,0.3884 -0.0289,0.1417 -0.0431,0.2888 -0.0448,0.4419 -3e-4,0.1522 0.008,0.3044 0.0247,0.4564 0.0176,0.1516 0.0385,0.2962 0.0635,0.4337 0.0244,0.1431 0.0533,0.2945 0.0862,0.4564 0.0328,0.1615 0.0742,0.3231 0.1238,0.4844 0.0496,0.1616 0.1117,0.3127 0.1854,0.4547 0.0737,0.1414 0.1627,0.263 0.2687,0.3662 0.1052,0.1032 0.2308,0.1763 0.3762,0.2211 0.1443,0.0451 0.3129,0.051 0.5051,0.0193 0.1596,-0.0295 0.2968,-0.0825 0.4111,-0.1607 0.1145,-0.0777 0.2075,-0.1729 0.2812,-0.2846 0.0728,-0.1128 0.1269,-0.2362 0.1629,-0.3705 0.0358,-0.1335 0.0545,-0.2716 0.0567,-0.4139 0.0026,-0.1423 -0.0102,-0.282 -0.0382,-0.4189 z m 2.1636,-0.5108 0.3912,-2.0826 0.0111,-9e-4 0.6772,2.0078 z m 0.1662,-2.5121 -0.802,4.1239 0.3402,-0.0238 0.2421,-1.2697 1.2305,-0.0861 0.4053,1.2245 0.3564,-0.0249 -1.3678,-3.9722 z m 3.9583,2.4086 0.6772,-2.0077 0.011,5e-4 0.3912,2.0826 z m 0.5139,-2.4644 -1.368,3.9722 0.3401,0.0238 0.4164,-1.2237 1.2306,0.0859 0.231,1.269 0.3563,0.025 -0.8016,-4.1239 z m 3.1887,2.541 c 0.1139,0.0187 0.2214,0.0425 0.3226,0.0714 0.1003,0.0286 0.1885,0.0678 0.2636,0.1196 0.0745,0.0505 0.1309,0.1194 0.1681,0.2055 0.0368,0.0862 0.0484,0.1962 0.0348,0.3303 -0.0059,0.0604 -0.015,0.1329 -0.0275,0.2185 -0.0121,0.0848 -0.0238,0.178 -0.0365,0.2764 -0.0122,0.0995 -0.0219,0.2004 -0.0298,0.3016 -0.0068,0.1023 -0.0093,0.1996 -0.0074,0.2926 0.0029,0.0929 0.0128,0.1763 0.0301,0.2497 l 0.3784,0.0669 0.0085,-0.0482 c -0.0351,-0.0298 -0.0587,-0.0771 -0.0708,-0.1434 -0.0125,-0.0652 -0.0176,-0.1404 -0.0145,-0.226 0.0031,-0.0844 0.0099,-0.1703 0.0207,-0.2571 0.0108,-0.087 0.0229,-0.1664 0.0349,-0.2384 0.0119,-0.072 0.0198,-0.1284 0.0252,-0.1686 0.0218,-0.125 0.0351,-0.2427 0.0408,-0.3509 0.0051,-0.1078 -0.002,-0.2073 -0.0238,-0.2971 -0.0218,-0.0899 -0.0635,-0.1704 -0.1233,-0.2407 -0.0598,-0.07 -0.1443,-0.1307 -0.2549,-0.1803 l 0.002,-0.0107 c 0.1092,-0.0054 0.2064,-0.0332 0.292,-0.082 0.0856,-0.0501 0.1596,-0.1159 0.222,-0.1955 0.062,-0.0806 0.1133,-0.1687 0.153,-0.2648 0.0391,-0.0961 0.0672,-0.1936 0.0845,-0.292 0.0346,-0.2018 0.0349,-0.3739 -0.0014,-0.5176 -0.0352,-0.1426 -0.1012,-0.2625 -0.1967,-0.358 -0.095,-0.0955 -0.2149,-0.1723 -0.3606,-0.2302 -0.1443,-0.0584 -0.3087,-0.1029 -0.4918,-0.1343 l -0.7725,-0.1364 -0.7047,3.9963 0.3464,0.061 0.3317,-1.8806 z m -0.0386,-1.8695 0.5009,0.0882 c 0.1361,0.0232 0.2531,0.0547 0.3504,0.0958 0.0969,0.0411 0.1746,0.095 0.2324,0.1619 0.0567,0.0677 0.0938,0.1522 0.1108,0.2539 0.0162,0.1018 0.0114,0.2265 -0.0144,0.3719 -0.0258,0.1421 -0.0678,0.2554 -0.1245,0.3416 -0.0549,0.0865 -0.119,0.1522 -0.1904,0.1956 -0.0712,0.0439 -0.1423,0.0726 -0.2126,0.0876 -0.0712,0.0142 -0.1336,0.0204 -0.1891,0.019 -0.0556,-0.0026 -0.0953,-0.0057 -0.1199,-0.0111 l -0.6075,-0.1071 z m 4.489,3.1604 c -0.0278,0.0935 -0.0598,0.1919 -0.0953,0.2965 -0.0354,0.1034 -0.0762,0.2075 -0.1224,0.3098 -0.0457,0.1018 -0.0992,0.1964 -0.1593,0.2849 -0.0607,0.0873 -0.1302,0.1613 -0.2078,0.2217 -0.078,0.0612 -0.1661,0.1009 -0.2653,0.1221 -0.0987,0.0204 -0.2101,0.0145 -0.3331,-0.0173 -0.1131,-0.0314 -0.2052,-0.0802 -0.2758,-0.1479 -0.072,-0.0666 -0.1256,-0.1474 -0.1636,-0.2407 -0.0374,-0.0938 -0.0615,-0.1956 -0.0717,-0.3056 -0.0111,-0.1094 -0.0116,-0.2225 -0.0037,-0.339 0.0091,-0.1171 0.0238,-0.2316 0.044,-0.345 0.0201,-0.1139 0.0422,-0.2199 0.0663,-0.3211 0.0252,-0.1007 0.0482,-0.1894 0.0689,-0.2671 0.0198,-0.0776 0.0448,-0.1663 0.0722,-0.2664 0.0278,-0.0998 0.0604,-0.2038 0.0976,-0.3124 0.0377,-0.1086 0.0813,-0.2154 0.1309,-0.3214 0.0499,-0.1055 0.1077,-0.203 0.1721,-0.2931 0.064,-0.0893 0.1375,-0.1647 0.2194,-0.2268 0.0819,-0.0612 0.1732,-0.1032 0.2749,-0.1233 0.1018,-0.0213 0.2143,-0.0153 0.3379,0.0167 0.1265,0.0349 0.2257,0.0884 0.2997,0.1607 0.0734,0.072 0.1267,0.1571 0.1595,0.2549 0.0329,0.0963 0.0508,0.2001 0.0542,0.3101 0.0031,0.11 -0.0031,0.2205 -0.0179,0.3313 l 0.324,0.0868 c 0.0428,-0.1593 0.0576,-0.3158 0.046,-0.4683 -0.0111,-0.1534 -0.0485,-0.2959 -0.1123,-0.4277 -0.0632,-0.133 -0.1514,-0.2461 -0.2656,-0.3422 -0.1142,-0.0958 -0.2531,-0.1667 -0.4167,-0.2115 -0.184,-0.0484 -0.3489,-0.0609 -0.4949,-0.0382 -0.1454,0.0235 -0.2744,0.074 -0.387,0.1522 -0.1125,0.078 -0.2114,0.1757 -0.2967,0.2928 -0.0857,0.1171 -0.1596,0.2466 -0.2234,0.3875 -0.0632,0.1417 -0.1188,0.286 -0.1661,0.4351 -0.0476,0.1489 -0.0899,0.2934 -0.1265,0.4337 -0.0314,0.114 -0.0629,0.2373 -0.0943,0.3697 -0.0326,0.1312 -0.0599,0.2678 -0.0834,0.4079 -0.0235,0.1406 -0.0377,0.2803 -0.0434,0.4198 -0.0056,0.1395 0.0015,0.2738 0.0227,0.4036 0.0216,0.129 0.0601,0.2486 0.1177,0.3586 0.0575,0.1094 0.1363,0.2053 0.2386,0.286 0.1024,0.0814 0.2325,0.1435 0.389,0.1866 0.1953,0.0521 0.3724,0.0555 0.5337,0.011 0.1605,-0.0448 0.3104,-0.138 0.451,-0.2795 l 0.0108,0.0029 -0.0766,0.4107 0.2719,0.0728 0.5207,-1.944 -1.1812,-0.3166 -0.0811,0.3033 z m 2.8034,2.99 0.1276,-0.2866 -1.3839,-0.6163 0.6735,-1.5123 1.2357,0.5502 0.1278,-0.2865 -1.2359,-0.5502 0.5941,-1.3349 1.3595,0.6052 0.1276,-0.2866 -1.6804,-0.748 -1.6506,3.7068 z m 3.3041,-2.8256 -0.3832,-0.2123 -1.9673,3.5489 0.3076,0.1704 1.6837,-3.0379 0.009,0.0054 -0.3682,3.767 0.3736,0.2072 1.9672,-3.549 -0.3072,-0.1704 -1.6892,3.0473 -0.01,-0.0051 z m 3.5189,2.6311 -2.3051,2.9503 0.2772,0.2166 2.3052,-2.9503 0.7248,0.5663 0.1933,-0.2472 -1.7269,-1.349 -0.193,0.2472 z m -0.2197,4.6579 2.6085,-3.1085 -0.2693,-0.2259 -2.6085,3.1085 z m 4.1888,-1.5571 -0.3044,-0.3152 -2.9192,2.8188 0.2444,0.2528 2.4984,-2.4125 0.007,0.0076 -1.4536,3.4949 0.2968,0.3072 2.9191,-2.8187 -0.2443,-0.2529 -2.5064,2.4205 -0.008,-0.0079 z m 0.688,4.5811 1.9734,-0.7719 0.007,0.0088 -1.3439,1.6384 z m 2.2181,-1.1903 -3.9218,1.5052 0.2002,0.2758 1.2053,-0.4674 0.7248,0.9978 -0.8235,0.9927 0.2101,0.2891 2.6436,-3.2649 z" />
      <path
         inkscape:connector-curvature="0"
         id="path1151"
         style="fill:#ffffff;fill-rule:evenodd;stroke:#ffffff;stroke-width:0.04821897;stroke-linecap:butt;stroke-linejoin:miter;stroke-dasharray:none"
         d="m 69.0055,114.4922 0.9989,-1.5384 0.4493,0.292 c 0.0346,0.0224 0.0848,0.0496 0.1474,0.0805 0.0638,0.0309 0.1375,0.0601 0.2191,0.0884 0.0805,0.0278 0.1667,0.0494 0.2557,0.063 0.0884,0.0144 0.1763,0.0164 0.2614,0.006 0.1522,-0.017 0.2899,-0.074 0.4138,-0.1698 0.1236,-0.0961 0.2381,-0.2262 0.3433,-0.3898 0.1131,-0.174 0.1834,-0.3336 0.2103,-0.4807 0.0267,-0.146 0.0145,-0.2829 -0.0377,-0.4127 -0.0521,-0.1284 -0.1411,-0.2526 -0.2667,-0.3742 -0.1256,-0.121 -0.2838,-0.2432 -0.4762,-0.3674 l -0.6035,-0.3917 -2.2099,3.403 z m 2.0389,-3.1402 0.4312,0.28 c 0.1162,0.0777 0.2129,0.1557 0.29,0.2356 0.0765,0.0788 0.1318,0.163 0.1624,0.252 0.0312,0.0876 0.0354,0.1851 0.0128,0.2897 -0.0224,0.1052 -0.0754,0.2219 -0.1591,0.3506 -0.0983,0.15 -0.2001,0.2571 -0.3041,0.3195 -0.1035,0.0632 -0.2115,0.0907 -0.3223,0.0842 -0.1117,-0.006 -0.2279,-0.0371 -0.3481,-0.0936 -0.1205,-0.0558 -0.2463,-0.1267 -0.3779,-0.2143 l -0.254,-0.1649 z m 1.3714,5.2208 c 0.1693,0.0851 0.3272,0.1321 0.474,0.1401 0.1463,0.009 0.282,-0.0131 0.4079,-0.0641 0.1259,-0.0525 0.2424,-0.1256 0.3501,-0.2217 0.1074,-0.0961 0.2069,-0.2058 0.2979,-0.3308 0.0918,-0.1244 0.1769,-0.254 0.2546,-0.3903 0.0776,-0.1366 0.1499,-0.2707 0.2165,-0.4028 0.0683,-0.1324 0.1375,-0.2721 0.2075,-0.4215 0.0714,-0.1497 0.1344,-0.3033 0.1908,-0.4595 0.0555,-0.1568 0.0958,-0.3135 0.1193,-0.4683 0.0241,-0.1548 0.0233,-0.3042 -0.0028,-0.4479 -0.025,-0.1434 -0.0831,-0.2761 -0.1749,-0.3977 -0.0913,-0.1224 -0.2251,-0.229 -0.4008,-0.3197 -0.1593,-0.0803 -0.3107,-0.1231 -0.4527,-0.1284 -0.1426,-0.006 -0.2764,0.0181 -0.4011,0.0708 -0.1256,0.0533 -0.2424,0.1276 -0.3512,0.222 -0.1083,0.0955 -0.2092,0.2041 -0.3025,0.3254 -0.093,0.1207 -0.1774,0.2475 -0.2557,0.379 -0.0779,0.1312 -0.1482,0.2594 -0.2109,0.3841 -0.0669,0.129 -0.1352,0.2673 -0.2052,0.4167 -0.0709,0.1491 -0.1349,0.3027 -0.1919,0.4617 -0.0578,0.1591 -0.0989,0.3172 -0.1247,0.4751 -0.0255,0.1579 -0.0275,0.3087 -0.0049,0.4547 0.0227,0.1463 0.0789,0.2801 0.1679,0.4034 0.089,0.1233 0.2202,0.2296 0.3928,0.3197 z m 0.1713,-0.2647 c -0.1307,-0.0689 -0.2277,-0.1528 -0.29,-0.2532 -0.0635,-0.1 -0.0984,-0.21 -0.1075,-0.3313 -0.0093,-0.1208 0,-0.2467 0.029,-0.3768 0.0286,-0.1312 0.068,-0.2608 0.1184,-0.3897 0.0508,-0.129 0.1055,-0.252 0.1627,-0.3685 0.0576,-0.1165 0.11,-0.2223 0.1588,-0.315 0.0439,-0.089 0.0961,-0.1868 0.1556,-0.2962 0.059,-0.1097 0.1264,-0.22 0.1999,-0.3325 0.0739,-0.1117 0.1542,-0.2154 0.2409,-0.3121 0.0873,-0.0964 0.1808,-0.176 0.2801,-0.2378 0.0997,-0.0627 0.2046,-0.0992 0.316,-0.1094 0.1103,-0.0105 0.2274,0.0147 0.3481,0.0754 0.1273,0.0657 0.2214,0.1491 0.2823,0.2483 0.0607,0.0995 0.0956,0.2092 0.1052,0.3297 0.0094,0.1201 6e-4,0.2452 -0.0263,0.375 -0.0267,0.1301 -0.0644,0.2596 -0.1134,0.3875 -0.0482,0.1284 -0.0998,0.2497 -0.1545,0.3634 -0.055,0.1151 -0.1055,0.2168 -0.1522,0.3061 -0.0431,0.0873 -0.0947,0.1857 -0.1528,0.296 -0.0584,0.1108 -0.1239,0.223 -0.1962,0.3379 -0.0728,0.1148 -0.1528,0.2219 -0.2392,0.3222 -0.0871,0.0995 -0.1806,0.1812 -0.2815,0.2464 -0.1009,0.0649 -0.2081,0.1023 -0.322,0.1134 -0.1137,0.0107 -0.2345,-0.0165 -0.3614,-0.0788 z m 3.8092,1.9139 0.1176,-0.2908 -1.3944,-0.5635 1.4023,-3.4714 -0.326,-0.1318 -1.5202,3.7625 z m 1.3759,0.4907 1.3212,-3.8367 -0.3325,-0.1145 -1.3209,3.8367 z m 3.5303,-0.5411 c -0.0273,0.0972 -0.0613,0.1955 -0.1021,0.2962 -0.0397,0.0995 -0.0881,0.1944 -0.1448,0.2834 -0.0562,0.0899 -0.1216,0.1664 -0.1962,0.2311 -0.0745,0.064 -0.159,0.1085 -0.2537,0.1343 -0.0944,0.0247 -0.201,0.0233 -0.3183,-0.005 -0.1432,-0.0377 -0.2566,-0.0975 -0.3396,-0.1814 -0.0845,-0.0833 -0.1432,-0.1826 -0.1795,-0.2985 -0.036,-0.1156 -0.0549,-0.2407 -0.0564,-0.3739 -0.0017,-0.1341 0.008,-0.2693 0.0281,-0.4062 0.0201,-0.1372 0.0459,-0.2693 0.0754,-0.3957 0.0298,-0.1264 0.0575,-0.2415 0.0836,-0.3427 0.0216,-0.0902 0.0482,-0.1942 0.0794,-0.3118 0.0315,-0.1177 0.0692,-0.2393 0.1137,-0.3657 0.0445,-0.1264 0.0978,-0.2472 0.1593,-0.3628 0.0623,-0.1154 0.1346,-0.2163 0.2182,-0.3016 0.0834,-0.0848 0.1795,-0.1457 0.2878,-0.1817 0.1094,-0.036 0.2327,-0.0377 0.3702,-0.005 0.1318,0.0338 0.2372,0.0882 0.3152,0.1625 0.0785,0.0734 0.1355,0.1618 0.1703,0.2636 0.0352,0.1015 0.0536,0.2103 0.055,0.3277 0.0017,0.1165 -0.0082,0.235 -0.0309,0.3549 l 0.3413,0.085 c 0.0411,-0.1684 0.0567,-0.3317 0.0479,-0.491 -0.0085,-0.159 -0.0425,-0.3058 -0.1034,-0.441 -0.0613,-0.1352 -0.1514,-0.2515 -0.2679,-0.3495 -0.1174,-0.097 -0.2639,-0.1687 -0.4414,-0.2141 -0.1734,-0.0422 -0.3305,-0.0499 -0.4697,-0.0232 -0.1394,0.0266 -0.2644,0.0802 -0.3733,0.1596 -0.1105,0.0802 -0.2075,0.1789 -0.2914,0.2954 -0.0839,0.1176 -0.157,0.2463 -0.2205,0.3858 -0.0624,0.1386 -0.1165,0.2811 -0.1633,0.4266 -0.0456,0.1457 -0.0853,0.2863 -0.1182,0.422 -0.036,0.1406 -0.0714,0.2909 -0.1069,0.4519 -0.0357,0.1613 -0.0635,0.3254 -0.0842,0.4929 -0.0204,0.1678 -0.0249,0.3314 -0.0153,0.491 0.0097,0.1593 0.0417,0.3064 0.0964,0.4436 0.0541,0.1372 0.1392,0.2551 0.2537,0.3552 0.1134,0.1001 0.265,0.174 0.4536,0.2231 0.1578,0.038 0.3047,0.0451 0.441,0.0204 0.1361,-0.0244 0.26,-0.0737 0.3725,-0.1457 0.1125,-0.0734 0.212,-0.1639 0.2996,-0.2721 0.087,-0.1075 0.1602,-0.226 0.2203,-0.3549 0.0601,-0.129 0.1051,-0.262 0.1355,-0.3983 z m 1.6449,1.6268 0.4944,-4.0275 -0.349,-0.0431 -0.4943,4.0278 z m 1.9182,-1.3655 0.7121,-1.9959 0.011,9e-4 0.3546,2.0891 z m 0.5567,-2.4551 -1.4369,3.9476 0.3396,0.0297 0.4377,-1.2163 1.2288,0.1074 0.2089,1.273 0.3558,0.0309 -0.7294,-4.1368 z m 3.1292,4.1332 -0.0686,-1.9681 1.3516,-0.0473 -0.0111,-0.3135 -1.3516,0.0473 -0.051,-1.4601 1.514,-0.053 -0.0108,-0.3135 -1.8654,0.0652 0.1414,4.0552 z m 4.4354,-0.4087 -0.0383,-0.3116 -1.5035,0.1846 -0.2015,-1.643 1.3424,-0.165 -0.0382,-0.3115 -1.3425,0.165 -0.178,-1.4502 1.4765,-0.1812 -0.0379,-0.3115 -1.8258,0.2242 0.4943,4.0275 z m 0.5615,-3.9762 0.2951,-0.068 c 0.0791,-0.0227 0.1647,-0.0445 0.2571,-0.0658 0.0913,-0.021 0.1825,-0.0346 0.2744,-0.0408 0.0907,-0.007 0.176,0 0.2537,0.0198 0.1168,0.0341 0.2185,0.0893 0.3056,0.1661 0.0864,0.0774 0.161,0.1684 0.2233,0.2736 0.0613,0.1052 0.114,0.2168 0.1571,0.3359 0.0431,0.1185 0.0796,0.237 0.1108,0.3546 0.0295,0.1171 0.0561,0.2268 0.0782,0.328 0.0236,0.0972 0.046,0.2069 0.0686,0.3285 0.0224,0.1216 0.0394,0.2472 0.0497,0.379 0.011,0.1318 0.0093,0.2608 -0.0034,0.3875 -0.0122,0.1267 -0.0426,0.2441 -0.0896,0.3521 -0.0474,0.1083 -0.1182,0.1984 -0.2112,0.2727 -0.0541,0.0411 -0.1137,0.0762 -0.1794,0.1043 -0.0661,0.0272 -0.1344,0.0516 -0.2044,0.0694 -0.0695,0.019 -0.1369,0.0363 -0.203,0.0505 l -0.411,0.0949 z m 0.4995,3.7273 0.775,-0.1789 c 0.1644,-0.0371 0.3132,-0.0816 0.4444,-0.1349 0.1313,-0.0527 0.245,-0.1208 0.3419,-0.2033 0.0967,-0.0822 0.1743,-0.1862 0.2341,-0.312 0.0598,-0.1259 0.1001,-0.2804 0.1219,-0.4629 0.0156,-0.1165 0.0193,-0.2399 0.0128,-0.3688 -0.0074,-0.1287 -0.0218,-0.2586 -0.0431,-0.3906 -0.0218,-0.1321 -0.0462,-0.2614 -0.0746,-0.3881 -0.0283,-0.1267 -0.0552,-0.2463 -0.0819,-0.3586 -0.0232,-0.1003 -0.0553,-0.2075 -0.0975,-0.3209 -0.0417,-0.1134 -0.0918,-0.227 -0.1502,-0.339 -0.0593,-0.1125 -0.1242,-0.2168 -0.197,-0.3127 -0.0723,-0.0966 -0.1514,-0.1771 -0.2356,-0.2418 -0.0998,-0.0677 -0.2007,-0.1167 -0.303,-0.1468 -0.1012,-0.0295 -0.2041,-0.0453 -0.3081,-0.0473 -0.1038,-10e-4 -0.2092,0.007 -0.3164,0.0238 -0.1071,0.0176 -0.2168,0.0391 -0.3291,0.0657 l -0.7064,0.1633 z m 5.1735,-1.5038 -0.1023,-0.2968 -1.4324,0.4932 -0.5389,-1.5652 1.279,-0.4403 -0.102,-0.2968 -1.279,0.4406 -0.4757,-1.3817 1.4069,-0.4841 -0.1024,-0.2968 -1.739,0.5987 1.3209,3.837 z m 0.8271,-2.4247 c 0.1041,-0.0497 0.2058,-0.0922 0.3053,-0.1262 0.0984,-0.0343 0.1933,-0.0527 0.2843,-0.0533 0.0902,-0.001 0.1758,0.0224 0.2557,0.0717 0.0797,0.0496 0.1522,0.133 0.218,0.2506 0.0298,0.0527 0.0641,0.1177 0.1029,0.1948 0.0388,0.0765 0.0825,0.1595 0.1284,0.2474 0.0474,0.0885 0.0972,0.1766 0.1488,0.2642 0.053,0.0876 0.1066,0.169 0.1616,0.2441 0.0559,0.0742 0.1117,0.1366 0.1681,0.1871 l 0.3481,-0.1625 -0.0207,-0.0442 c -0.0456,-0.004 -0.0921,-0.0295 -0.1403,-0.0768 -0.0473,-0.0462 -0.0947,-0.1049 -0.1412,-0.1769 -0.0459,-0.0711 -0.0895,-0.1451 -0.1306,-0.2222 -0.0412,-0.0777 -0.0766,-0.1497 -0.1083,-0.2155 -0.0315,-0.0657 -0.0573,-0.1165 -0.076,-0.1525 -0.0539,-0.115 -0.1103,-0.2191 -0.1678,-0.3109 -0.0576,-0.0913 -0.1205,-0.1687 -0.1899,-0.2299 -0.0695,-0.061 -0.1497,-0.1032 -0.239,-0.1262 -0.0893,-0.0232 -0.1933,-0.0243 -0.3124,-0.002 l -0.005,-0.01 c 0.0864,-0.0669 0.1502,-0.1454 0.1922,-0.2344 0.0414,-0.0901 0.0643,-0.1865 0.0697,-0.2877 0.005,-0.1015 -0.004,-0.203 -0.0266,-0.3047 -0.023,-0.101 -0.0559,-0.1968 -0.0981,-0.2875 -0.0873,-0.1851 -0.186,-0.3262 -0.2979,-0.4232 -0.1106,-0.0966 -0.2333,-0.157 -0.3666,-0.1803 -0.1326,-0.0238 -0.2749,-0.0181 -0.4271,0.0182 -0.1523,0.0348 -0.3121,0.0927 -0.4802,0.1718 l -0.711,0.3316 1.7147,3.6777 0.3189,-0.1486 -0.807,-1.7308 z m -1.1038,-1.5092 0.4609,-0.2149 c 0.1248,-0.0592 0.2387,-0.1003 0.3419,-0.1224 0.1032,-0.0221 0.1976,-0.0224 0.2832,-9e-4 0.0853,0.023 0.1644,0.0709 0.2364,0.1443 0.0717,0.0743 0.1392,0.1791 0.2015,0.3129 0.0604,0.1313 0.0913,0.2484 0.0941,0.3513 0.004,0.1026 -0.0102,0.193 -0.0442,0.2695 -0.0329,0.0771 -0.0745,0.1412 -0.1236,0.1936 -0.0501,0.0528 -0.0978,0.0936 -0.144,0.1242 -0.0467,0.0298 -0.0813,0.0499 -0.1046,0.0598 l -0.559,0.2605 z m 3.8557,0.5196 -0.5613,-2.0435 0.01,-0.005 1.4887,1.5077 z m -0.9519,-2.3307 1.0871,4.0581 0.2951,-0.1706 -0.3387,-1.2473 1.0681,-0.6168 0.9011,0.9227 0.3095,-0.1786 -2.9707,-2.9704 z m 5.6203,1.0871 -0.1845,-0.254 -1.2167,0.8842 -2.2008,-3.0289 -0.2846,0.2067 2.3851,3.2828 z" />
      <path
         inkscape:connector-curvature="0"
         id="path1153"
         style="fill:#1b1918;fill-rule:evenodd;stroke:#000000;stroke-width:0.08035078;stroke-linecap:butt;stroke-linejoin:miter;stroke-dasharray:none"
         d="m 87.8878,105.8112 0.006,-3.5641 2.4721,0.9888 1.2857,-1.0136 1.2361,0.8898 1.0884,-1.4346 1.0878,1.4092 c 1.4328,-0.1953 2.154,-1.4663 2.8925,-2.5957 l -1.1619,-0.6428 c 1.4881,-0.662 2.055,-1.0944 3.0409,-2.4228 l -1.4592,-0.8405 c 2.4028,-1.3638 3.9908,-2.9883 4.4994,-5.7852 0,0 -0.2966,0 -1.0878,-0.0493 -1.733,-0.1079 1.1832,-3.5456 1.2858,-3.9558 0.2472,-0.9891 -1.78,-2.0273 -1.78,-2.0273 0,0 -0.099,0.5439 -1.2361,0.9891 -1.1371,0.4453 -1.434,-0.7418 -1.1374,-1.4833 4.2476,-10.6191 -1.4439,-24.3069 -14.7433,-20.3484 -0.333,0.9458 -0.9822,2.0703 -0.72,3.0164 -1.0788,0.4024 -2.2132,0.5071 -3.2917,1.3855 l -0.4099,3.1617 c -0.6575,-0.2751 -0.9132,-0.3902 -1.5707,-0.5062 0.839,-1.3925 1.263,-2.5487 0.3164,-3.7818 0.1707,-0.9918 0.4102,-1.1198 0.9158,-1.6948 -0.3914,-0.4314 -1.0618,-0.5654 -1.6206,-0.1635 -0.4835,0.8644 -0.7284,1.838 -0.4904,3.0325 0.1753,0.8779 0.2467,0.5484 -0.2353,0.1483 -0.2786,-0.2311 -0.5785,-0.3268 -0.8668,-0.4952 -0.2195,-0.1279 -0.2117,-0.1895 -0.1016,0.0592 0.2472,0.5589 0.2532,1.1183 0.0185,1.6775 -0.595,0.2081 -1.0414,0.8129 -1.3392,1.8149 -1.4526,0.9559 -0.674,-2.3735 -1.011,-3.5602 -1.4779,2.9571 -2.0763,5.8018 0.8576,7.9828 l -1.8464,3.4493 0.0395,1.5114 -2.0156,3.774 -0.6497,1.217 c 0.0592,1.1577 0.5645,1.6015 1.5159,1.3309 l -0.4679,1.5566 c 0.1232,0.6183 0.5436,0.9983 1.2615,1.1407 -0.3517,0.217 -0.6477,0.3749 -0.7203,0.7708 0.1441,0.4697 0.4557,0.8202 0.7672,0.9326 -0.6354,3.5734 2.0024,4.5272 6.1281,4.2901 0.4051,4.1247 0.5741,8.3754 0.8614,12.7519 z" />
      <g
         id="Layer1003"
         style="stroke-width:0.14173713">
        <path
           inkscape:connector-curvature="0"
           id="path1155"
           style="fill:#fcbf2b;fill-rule:evenodd;stroke:#000000;stroke-width:0.08035078;stroke-linecap:butt;stroke-linejoin:miter;stroke-dasharray:none"
           d="m 87.3893,69.798 c 2.2975,1.3785 2.5228,5.5287 1.453,7.3126 -0.4218,0.7033 -0.7778,1.3388 -0.5295,2.0287 0.2483,0.69 0.436,1.9089 -0.1267,2.7057 -0.5627,0.7968 -1.9219,1.7813 -1.9219,1.7813 l -0.2812,0.9845 c 1.1537,1.298 1.7963,2.7649 3.1873,4.2661 2.2476,-8.0739 9.6761,-7.6768 9.7968,2.8593 l -1.5468,2.3908 -0.703,2.2969 -1.2189,0.9844 h -1.5469 l -0.375,1.4063 -2.0157,0.4218 -0.6095,-0.8906 -3.9844,2.4375 c 0,0 -0.3277,0.7506 -0.7495,1.7348 -0.4217,0.9842 -0.6562,1.2656 -0.6562,1.2656 0.5468,0.3873 1.677,1.836 0.9845,2.2967 l -1.2657,-0.6092 -0.4688,2.3905 -0.4309,0.0941 -0.3659,-0.1877 v -2.3907 l -1.7346,1.6407 -0.4609,-0.1778 -0.1953,-0.3849 c 0.8669,-1.5945 1.4522,-2.5121 3.2344,-3.0467 0,0 0.8435,-2.1098 0.8906,-2.5784 0.0471,-0.4685 0,-0.7497 0,-0.7497 0,0 -0.9374,-2.1093 -1.2186,-2.8126 -0.2812,-0.7032 -0.3283,-0.9844 -0.3283,-0.9844 l -0.1406,3.4219 c 0,0 0.5627,0.6565 0.5627,1.2657 0,0.6092 -0.7971,0.8904 -0.7971,0.8904 l 0.6477,1.6832 -0.5181,0.214 -0.9967,-0.7486 -0.4453,0.5156 0.3279,1.0783 -0.6746,0.9419 -0.4502,-1.3872 c -1.0593,1.118 -1.1775,1.2557 -1.2188,2.7422 l -0.2971,0.2517 -0.3356,-0.1581 c -0.3382,-1.145 -0.0562,-1.9514 0.502,-2.8642 0.2902,-0.4748 -1.6506,0.5321 -1.6506,0.5321 l -0.4524,-0.2798 0.0773,-0.3881 4.3362,-2.8125 -0.1641,-6.516 c -6.5047,-6.1588 -9.54,-13.6341 -0.8456,-19.4298 1.4063,-0.9374 2.3445,-1.6874 2.5319,-2.4372 0.1874,-0.7498 -0.8203,-2.0625 -0.8203,-2.0625 l 1.6874,0.375 -1.336,-1.5474 c 1.1002,-0.0709 2.6836,-0.3107 3.6576,0.2338 z" />
        <path
           inkscape:connector-curvature="0"
           id="path1157"
           style="fill:none;stroke:#000000;stroke-width:0.08035078;stroke-linecap:butt;stroke-linejoin:miter;stroke-dasharray:none"
           d="m 84.4132,77.472 c 1.6138,-0.8609 2.361,-2.3049 2.6719,-4.055" />
        <path
           inkscape:connector-curvature="0"
           id="path1159"
           style="fill:none;stroke:#000000;stroke-width:0.08035078;stroke-linecap:butt;stroke-linejoin:miter;stroke-dasharray:none"
           d="m 84.4706,78.8588 c 1.3633,-0.648 2.206,-1.3856 2.8381,-2.773" />
        <path
           inkscape:connector-curvature="0"
           id="path1161"
           style="fill:none;stroke:#000000;stroke-width:0.08035078;stroke-linecap:butt;stroke-linejoin:miter;stroke-dasharray:none"
           d="m 83.7099,79.9571 c 3e-4,1.12 0.0573,1.3034 0.6798,2.2502" />
        <path
           inkscape:connector-curvature="0"
           id="path1163"
           style="fill:none;stroke:#000000;stroke-width:0.08035078;stroke-linecap:butt;stroke-linejoin:miter;stroke-dasharray:none"
           d="m 84.7477,80.9579 c 0.3441,0.9586 0.4492,1.0982 1.2727,1.7176" />
        <path
           inkscape:connector-curvature="0"
           id="path1165"
           style="fill:none;stroke:#000000;stroke-width:0.08035078;stroke-linecap:butt;stroke-linejoin:miter;stroke-dasharray:none"
           d="m 87.4913,78.2265 c -0.8923,0.4242 -1.444,0.907 -1.8577,1.8152" />
        <path
           inkscape:connector-curvature="0"
           id="path1167"
           style="fill:none;stroke:#000000;stroke-width:0.08035078;stroke-linecap:butt;stroke-linejoin:miter;stroke-dasharray:none"
           d="m 88.3128,79.1394 c -1.1097,0.5274 -1.7956,1.1278 -2.3101,2.2571" />
        <path
           inkscape:connector-curvature="0"
           id="path1169"
           style="fill:none;stroke:#000000;stroke-width:0.08035078;stroke-linecap:butt;stroke-linejoin:miter;stroke-dasharray:none"
           d="m 83.3467,75.6871 c -1.4154,3.1845 -1.2218,4.8093 0.5483,7.9595" />
        <path
           inkscape:connector-curvature="0"
           id="path1171"
           style="fill:none;stroke:#000000;stroke-width:0.08035078;stroke-linecap:butt;stroke-linejoin:miter;stroke-dasharray:none"
           d="m 84.642,86.5791 c 0.1488,1.4114 0.6227,1.7915 1.5304,2.8174" />
        <path
           inkscape:connector-curvature="0"
           id="path1173"
           style="fill:none;stroke:#000000;stroke-width:0.08035078;stroke-linecap:butt;stroke-linejoin:miter;stroke-dasharray:none"
           d="m 84.0772,88.0748 c 0.3483,1.3758 0.9899,1.7847 2.0344,2.6709" />
        <path
           inkscape:connector-curvature="0"
           id="path1175"
           style="fill:none;stroke:#000000;stroke-width:0.08035078;stroke-linecap:butt;stroke-linejoin:miter;stroke-dasharray:none"
           d="m 83.5044,89.252 c 0.5297,1.3167 1.3487,1.7175 2.5026,2.4556" />
        <path
           inkscape:connector-curvature="0"
           id="path1177"
           style="fill:none;stroke:#000000;stroke-width:0.08035078;stroke-linecap:butt;stroke-linejoin:miter;stroke-dasharray:none"
           d="m 82.506,75.7545 c -1.6718,2.3264 -1.7719,3.4276 -0.638,6.0571 0,0 -1.7051,1.3025 -1.2836,3.3179 0.5942,2.8409 2.9665,6.592 5.4505,8.1445" />
        <path
           inkscape:connector-curvature="0"
           id="path1179"
           style="fill:none;stroke:#000000;stroke-width:0.08035078;stroke-linecap:butt;stroke-linejoin:miter;stroke-dasharray:none"
           d="m 87.2427,86.3005 c 0,0 -1.1925,1.2271 -1.2356,5.4071 -0.0431,4.18 0.9598,9.0757 0.9598,9.0757" />
        <path
           inkscape:connector-curvature="0"
           id="path1181"
           style="fill:none;stroke:#000000;stroke-width:0.08035078;stroke-linecap:butt;stroke-linejoin:miter;stroke-dasharray:none"
           d="m 89.1703,88.8769 c 2.3564,3.2959 2.0608,5.5803 1.781,9.4689" />
        <path
           inkscape:connector-curvature="0"
           id="path1183"
           style="fill:none;stroke:#000000;stroke-width:0.08035078;stroke-linecap:butt;stroke-linejoin:miter;stroke-dasharray:none"
           d="m 87.9965,87.4125 0.3946,4.9468" />
        <path
           inkscape:connector-curvature="0"
           id="path1185"
           style="fill:none;stroke:#000000;stroke-width:0.08035078;stroke-linecap:butt;stroke-linejoin:miter;stroke-dasharray:none"
           d="m 89.5893,89.4954 c 0.1868,-0.6477 1.7668,-4.024 3.0441,-4.6831 4.1408,-2.5129 5.1392,4.4598 5.7421,7.4061" />
        <path
           inkscape:connector-curvature="0"
           id="path1187"
           style="fill:none;stroke:#000000;stroke-width:0.08035078;stroke-linecap:butt;stroke-linejoin:miter;stroke-dasharray:none"
           d="m 89.9311,90.0641 c 0.0827,-1.6728 6.6197,-9.1182 8.531,2.4528" />
        <path
           inkscape:connector-curvature="0"
           id="path1189"
           style="fill:none;stroke:#000000;stroke-width:0.08035078;stroke-linecap:butt;stroke-linejoin:miter;stroke-dasharray:none"
           d="m 90.1576,90.6233 c 1.5115,-2.4392 6.1153,-6.2155 7.831,2.7392" />
        <path
           inkscape:connector-curvature="0"
           id="path1191"
           style="fill:none;stroke:#000000;stroke-width:0.08035078;stroke-linecap:butt;stroke-linejoin:miter;stroke-dasharray:none"
           d="m 90.5121,91.5117 c 1.6788,-2.3167 5.2373,-4.6457 6.6647,3.3653" />
        <path
           inkscape:connector-curvature="0"
           id="path1193"
           style="fill:none;stroke:#000000;stroke-width:0.08035078;stroke-linecap:butt;stroke-linejoin:miter;stroke-dasharray:none"
           d="m 90.6336,91.6985 c 1.8878,-1.7518 4.6751,-2.2371 5.8019,5.15" />
        <path
           inkscape:connector-curvature="0"
           id="path1195"
           style="fill:none;stroke:#000000;stroke-width:0.08035078;stroke-linecap:butt;stroke-linejoin:miter;stroke-dasharray:none"
           d="m 90.8858,92.2238 c 1.1954,-0.2605 2.3973,0.864 3.1188,4.9649" />
        <path
           inkscape:connector-curvature="0"
           id="path1197"
           style="fill:none;stroke:#000000;stroke-width:0.08035078;stroke-linecap:butt;stroke-linejoin:miter;stroke-dasharray:none"
           d="m 90.8369,92.1804 c 1.5383,-1.2847 3.515,-1.0777 4.4107,5.2206" />
        <path
           inkscape:connector-curvature="0"
           id="path1199"
           style="fill:none;stroke:#000000;stroke-width:0.08035078;stroke-linecap:butt;stroke-linejoin:miter;stroke-dasharray:none"
           d="m 90.9697,92.874 c 0.7584,0.7952 1.5715,2.664 1.9826,5.8264" />
        <path
           inkscape:connector-curvature="0"
           id="path1201"
           style="fill:none;stroke:#000000;stroke-width:0.08035078;stroke-linecap:butt;stroke-linejoin:miter;stroke-dasharray:none"
           d="m 87.1744,96.2467 0.6194,4.0136" />
        <path
           inkscape:connector-curvature="0"
           id="path1203"
           style="fill:none;stroke:#000000;stroke-width:0.08035078;stroke-linecap:butt;stroke-linejoin:miter;stroke-dasharray:none"
           d="m 88.0554,95.8569 0.6194,4.0136" />
        <path
           inkscape:connector-curvature="0"
           id="path1205"
           style="fill:none;stroke:#000000;stroke-width:0.08035078;stroke-linecap:butt;stroke-linejoin:miter;stroke-dasharray:none"
           d="m 88.8574,95.3685 0.6193,4.0136" />
        <path
           inkscape:connector-curvature="0"
           id="path1207"
           style="fill:none;stroke:#000000;stroke-width:0.08035078;stroke-linecap:butt;stroke-linejoin:miter;stroke-dasharray:none"
           d="m 89.6542,94.7271 0.6193,4.0135" />
        <path
           inkscape:connector-curvature="0"
           id="path1209"
           style="fill:#d4203c;fill-rule:evenodd;stroke:#000000;stroke-width:0.08035078;stroke-linecap:butt;stroke-linejoin:miter;stroke-dasharray:none"
           d="m 83.7255,71.2981 c 1.2966,1.7351 -0.3498,2.8491 -2.0852,3.9382 0,0 -0.5119,-0.5522 0.0037,-1.5599 0.5157,-1.0077 2.0815,-2.3783 2.0815,-2.3783 z" />
        <path
           inkscape:connector-curvature="0"
           id="path1211"
           style="fill:#d4203c;fill-rule:evenodd;stroke:#000000;stroke-width:0.08035078;stroke-linecap:butt;stroke-linejoin:miter;stroke-dasharray:none"
           d="m 84.7643,71.2792 c 0,0 0.9213,0.1059 1.0703,0.6969 0.1489,0.5909 -0.0137,1.5747 -0.2461,1.9958 -0.2323,0.4211 -0.692,0.8995 -0.692,0.8995 0,0 -0.4555,-0.4652 -0.2689,-0.9715 0.1866,-0.5063 0.4587,-0.7687 0.3663,-1.5187 -0.0923,-0.7499 -0.2296,-1.102 -0.2296,-1.102 z" />
        <path
           inkscape:connector-curvature="0"
           id="path1213"
           style="fill:#d4203c;fill-rule:evenodd;stroke:#000000;stroke-width:0.08035078;stroke-linecap:butt;stroke-linejoin:miter;stroke-dasharray:none"
           d="m 87.6444,69.8547 c 1.3847,1.5455 3.865,9.8107 6.1665,8.6596 -2.0013,-2.2788 -3.1904,-8.7282 -6.1665,-8.6596 z" />
        <path
           inkscape:connector-curvature="0"
           id="path1215"
           style="fill:#d4203c;fill-rule:evenodd;stroke:#000000;stroke-width:0.08035078;stroke-linecap:butt;stroke-linejoin:miter;stroke-dasharray:none"
           d="m 89.718,70.018 c 0.6083,0.6883 2.3031,2.7057 2.9894,4.5357 0.8433,2.2499 1.0077,2.5781 1.0077,2.5781 0,0 0.2582,-2.8125 -0.3983,-4.3126 -0.5391,-1.2316 -2.7683,-2.495 -3.549,-2.9075 -0.3872,-0.2049 -0.3047,-0.1823 -0.0498,0.1063 z" />
        <path
           inkscape:connector-curvature="0"
           id="path1217"
           style="fill:#d4203c;fill-rule:evenodd;stroke:#000000;stroke-width:0.08035078;stroke-linecap:butt;stroke-linejoin:miter;stroke-dasharray:none"
           d="m 86.1976,68.4269 c 0.5953,0 1.078,0.4828 1.078,1.078 0,0.5953 -0.4827,1.0781 -1.078,1.0781 -0.5953,0 -1.078,-0.4828 -1.078,-1.0781 0,-0.5952 0.4827,-1.078 1.078,-1.078 z" />
      </g>
    </g>
  </g>
</svg>
